<svg xmlns="http://www.w3.org/2000/svg"  viewBox="0 0 48 48" width="420px" height="420px"><path fill="#ffab91" d="M28.576,38.503c-0.288-0.29-0.768-0.29-1.152,0l-8.352,6.079c-1.248,0.965-3.072,0-3.072-1.544	l0-30.108c0-1.062,0.868-1.93,1.93-1.93h20.14c1.062,0,1.93,0.868,1.93,1.93v30.012c0,1.544-1.728,2.509-3.072,1.544L28.576,38.503z"/><path fill="none" stroke="#18193f" stroke-linecap="round" stroke-linejoin="round" stroke-miterlimit="10" stroke-width="3" d="M11.5,20.711l0-12.311c0-1.1,0.9-2,2-2h21c1.1,0,2,0.9,2,2v5.834"/><path fill="none" stroke="#18193f" stroke-linecap="round" stroke-linejoin="round" stroke-miterlimit="10" stroke-width="3" d="M36.5,37.468V39.5c0,1.6-1.8,2.6-3.2,1.6l-8.7-6.2c-0.3-0.3-0.8-0.3-1.2,0l-8.7,6.3c-1.3,1-3.2,0-3.2-1.6l0-12.6"/><path fill="none" stroke="#18193f" stroke-linecap="round" stroke-linejoin="round" stroke-width="3" d="M35.5,14.511 c2.9-0.2,5.8,1,7.8,3.4c3.4,4,2.8,10.1-1.2,13.3"/><path fill="none" stroke="#18193f" stroke-linecap="round" stroke-linejoin="round" stroke-width="3" d="M35.3,33.511 c-2.5-0.1-4.8-1.4-6.5-3.4c-3.4-4-2.8-10.1,1.2-13.4"/><line x1="36.1" x2="36.1" y1="27.311" y2="20.711" fill="none" stroke="#18193f" stroke-linecap="round" stroke-linejoin="round" stroke-width="3"/><line x1="32.8" x2="39.4" y1="24.011" y2="24.011" fill="none" stroke="#18193f" stroke-linecap="round" stroke-linejoin="round" stroke-width="3"/></svg>