<svg xmlns="http://www.w3.org/2000/svg"  viewBox="0 0 48 48" width="420px" height="420px"><circle cx="16.5" cy="30.63" r="12.5" fill="#9fa8da"/><ellipse cx="36" cy="30.63" fill="#9fa8da" rx="6" ry="11.5"/><ellipse cx="45.5" cy="30.63" fill="#9fa8da" rx="2.5" ry="10.5"/><ellipse cx="43.5" cy="24.63" fill="gray" rx="2.5" ry="10.5"/><ellipse cx="43.5" cy="24.63" fill="#18193f" rx="2.5" ry="10.5"/><path fill="#18193f" d="M8.881,32.273c-2.666-1.961-4.278-5.273-3.797-8.924c0.514-3.904,3.291-7.008,7.117-7.939 c2.012-0.49,3.939-0.31,5.639,0.337c0.541,0.206,1.151,0.061,1.56-0.348l0.001-0.001c0.764-0.764,0.502-2.078-0.508-2.461 c-2.093-0.794-4.45-1.044-6.916-0.553c-4.982,0.992-8.936,5.045-9.79,10.053c-0.855,5.017,1.288,9.593,4.922,12.262 c0.597,0.438,1.428,0.37,1.952-0.154l0.003-0.003C9.715,33.889,9.623,32.819,8.881,32.273z"/><path fill="#18193f" d="M21.79,16.438L21.79,16.438c-0.563,0.563-0.57,1.45-0.054,2.056C23.145,20.15,24,22.29,24,24.63 c0,5.238-4.262,9.5-9.5,9.5c-0.251,0-0.498-0.013-0.743-0.035c-0.461-0.041-0.919,0.1-1.246,0.427l-0.004,0.004 c-0.892,0.892-0.353,2.443,0.904,2.555c1.381,0.123,2.829,0.016,4.315-0.375c4.759-1.254,8.408-5.3,9.132-10.169 c0.572-3.851-0.623-7.418-2.885-10.043C23.411,15.842,22.399,15.829,21.79,16.438z"/><path fill="#18193f" d="M38.394,25.106c-0.771,0-1.413,0.592-1.485,1.359C36.495,30.843,34.681,33.13,34,33.13	c-0.771,0-3-2.923-3-8.5c0-5.577,2.229-8.5,3-8.5c0.572,0,1.943,1.614,2.614,4.723c0.149,0.69,0.755,1.19,1.46,1.19h0	c0.941,0,1.669-0.862,1.472-1.782c-0.897-4.183-3.04-7.131-5.546-7.131c-3.314,0-6,5.149-6,11.5s2.686,11.5,6,11.5	c2.937,0,5.374-4.047,5.891-9.388c0.085-0.876-0.616-1.636-1.496-1.636H38.394z"/></svg>