<svg xmlns="http://www.w3.org/2000/svg"  viewBox="0 0 48 48" width="420px" height="420px"><path fill="#ffab91" d="M45.705,31.123c0.505-2.887,0.303-5.862-0.595-8.652c-0.739-2.297-1.946-4.437-3.526-6.262	c-1.569-1.812-3.498-3.306-5.648-4.366C33.477,10.63,30.741,10,28,10c-9.945,0-18,8.055-18,18c0,9.945,8.055,18,18,18	c8.679,0,15.904-6.143,17.599-14.326C45.637,31.491,45.673,31.307,45.705,31.123z M28.45,41.5c-1.524,0-2.951-0.519-4.223-1.429	C21.052,37.272,19,32.912,19,28c0-4.912,2.051-9.272,5.226-12.071c1.272-0.91,2.7-1.429,4.224-1.429c5.22,0,9.45,6.048,9.45,13.5	C37.9,35.451,33.67,41.5,28.45,41.5z"/><path fill="none" stroke="#18193f" stroke-linecap="round" stroke-linejoin="round" stroke-width="3" d="M11.109,10.706	C14.442,7.473,18.988,5.484,24,5.484c9.129,0,16.711,6.601,18.229,15.304c-1.315-7.147-6.907-12.526-13.6-12.526	C20.963,8.261,14.742,15.307,14.742,24s6.222,15.739,13.887,15.739c6.694,0,12.286-5.379,13.6-12.526	c-1.518,8.702-9.1,15.303-18.229,15.303C13.77,42.516,5.484,34.23,5.484,24c0-1.752,0.243-3.448,0.697-5.054"/><path fill="none" stroke="#18193f" stroke-linecap="round" stroke-linejoin="round" stroke-width="3" d="M20.056,36.378	c1.324,0.963,2.815,1.509,4.407,1.509c5.37,0,9.721-6.222,9.721-13.887c0-4.653-1.603-8.773-4.063-11.294"/></svg>