<svg xmlns="http://www.w3.org/2000/svg"  viewBox="0 0 48 48" width="420px" height="420px"><path fill="#8ce7f2" d="M37.5,39.5H40c4.1,0,7.5-3.4,7.5-7.5s-3.4-7.5-7.5-7.5h-1.5V24c0-5.8-4.7-10.5-10.5-10.5S17.5,18.2,17.5,24v0.5	H16c-4.1,0-7.5,3.4-7.5,7.5s3.4,7.5,7.5,7.5h2.1H37.5z"/><path fill="none" stroke="#18193f" stroke-linecap="round" stroke-linejoin="round" stroke-miterlimit="10" stroke-width="3" d="M32.4,13.8c-1.9-2.6-5-4.3-8.4-4.3c-5.8,0-10.5,4.7-10.5,10.5v0.5H12c-4.1,0-7.5,3.4-7.5,7.5s3.4,7.5,7.5,7.5	h2.1"/><path fill="none" stroke="#18193f" stroke-linecap="round" stroke-linejoin="round" stroke-miterlimit="10" stroke-width="3" d="M33.5,35.5H36c4.1,0,7.5-3.4,7.5-7.5s-3.4-7.5-7.5-7.5h-1.5"/><polyline fill="none" stroke="#18193f" stroke-linecap="round" stroke-linejoin="round" stroke-miterlimit="10" stroke-width="3" points="28.5,35.8 24,40.3 19.5,35.8"/><line x1="24" x2="24" y1="25.3" y2="40.3" fill="none" stroke="#18193f" stroke-linecap="round" stroke-linejoin="round" stroke-miterlimit="10" stroke-width="3"/></svg>