<svg xmlns="http://www.w3.org/2000/svg"  viewBox="0 0 48 48" width="420px" height="420px"><path fill="#ffe082" d="M45,11H12c-0.6,0-1,0.4-1,1v6c0,0.6,0.4,1,1,1h1v24c0,1.7,1.3,3,3,3h25c1.7,0,3-1.3,3-3V19h1c0.6,0,1-0.4,1-1	v-6C46,11.4,45.6,11,45,11z"/><path fill="none" stroke="#18193f" stroke-linecap="round" stroke-linejoin="round" stroke-miterlimit="10" stroke-width="3" d="M37.2,6.5h3.3c0.6,0,1,0.4,1,1v6c0,0.6-0.4,1-1,1h-33c-0.6,0-1-0.4-1-1v-6c0-0.6,0.4-1,1-1h23"/><path fill="none" stroke="#18193f" stroke-linecap="round" stroke-linejoin="round" stroke-miterlimit="10" stroke-width="3" d="M39.5,34.4v4.1c0,1.7-1.3,3-3,3h-25c-1.7,0-3-1.3-3-3V21.2"/><line x1="39.5" x2="39.5" y1="14.5" y2="35.9" fill="none" stroke="#18193f" stroke-linecap="round" stroke-linejoin="round" stroke-miterlimit="10" stroke-width="3"/><line x1="19.5" x2="28.5" y1="21.5" y2="21.5" fill="none" stroke="#18193f" stroke-linecap="round" stroke-linejoin="round" stroke-miterlimit="10" stroke-width="3"/></svg>