<svg xmlns="http://www.w3.org/2000/svg"  viewBox="0 0 48 48" width="420px" height="420px"><path fill="#90caf9" d="M44.041,26.083h-21.03c-1.059,0-1.917,0.858-1.917,1.917v9.324c0,4.749,3.849,8.598,8.598,8.598h0 c3.87,0,7.141-2.557,8.22-6.073c0.845,0.785,1.979,1.271,3.218,1.28c2.657,0.02,4.828-2.366,4.828-5.023V28 C45.958,26.941,45.1,26.083,44.041,26.083z"/><circle cx="29.5" cy="16.63" r="4.63" fill="#90caf9"/><circle cx="41.5" cy="17.63" r="3.63" fill="#90caf9"/><path fill="none" stroke="#18193f" stroke-linecap="round" stroke-linejoin="round" stroke-width="3" d="M22.5,21.468V31.63	c0,1.105-0.895,2-2,2h-13c-1.105,0-2-0.895-2-2v-5.481"/><path fill="none" stroke="#18193f" stroke-linecap="round" stroke-linejoin="round" stroke-width="3" d="M5.5,21.13v-2.5	c0-1.105,0.895-2,2-2h10.989"/><path fill="none" stroke="#18193f" stroke-linecap="round" stroke-linejoin="round" stroke-width="3" d="M25.5,41.63	c-4.63,0-8.45-3.5-8.94-8"/><path fill="none" stroke="#18193f" stroke-linecap="round" stroke-linejoin="round" stroke-width="3" d="M26.957,21.63H34.5v11	c0,3.031-1.499,5.713-3.796,7.343"/><path fill="none" stroke="#18193f" stroke-linecap="round" stroke-linejoin="round" stroke-width="3" d="M32.5,21.63h2h8v10	c0,2.76-2.24,5-5,5c-1.31,0-2.51-0.51-3.4-1.34"/><circle cx="25.5" cy="12.63" r="4" fill="none" stroke="#18193f" stroke-linecap="round" stroke-linejoin="round" stroke-width="3"/><circle cx="37.5" cy="13.63" r="3" fill="none" stroke="#18193f" stroke-linecap="round" stroke-linejoin="round" stroke-width="3"/><path fill="#18193f" d="M17,20.13h-6c-0.552,0-1,0.448-1,1c0,0.553,0.448,1,1,1h2v7c0,0.552,0.448,1,1,1s1-0.447,1-1v-7h2	c0.552,0,1-0.448,1-1S17.552,20.13,17,20.13z"/></svg>