<svg xmlns="http://www.w3.org/2000/svg"  viewBox="0 0 48 48" width="420px" height="420px"><path fill="#ffab91" d="M28.576,38.503c-0.288-0.29-0.768-0.29-1.152,0l-8.352,6.079c-1.248,0.965-3.072,0-3.072-1.544	l0-30.108c0-1.062,0.868-1.93,1.93-1.93h20.14c1.062,0,1.93,0.868,1.93,1.93v30.012c0,1.544-1.728,2.509-3.072,1.544L28.576,38.503z"/><path fill="none" stroke="#18193f" stroke-linecap="round" stroke-linejoin="round" stroke-miterlimit="10" stroke-width="3" d="M11.5,14.83V8.4c0-1.1,0.9-2,2-2h21c1.1,0,2,0.9,2,2v3.366"/><path fill="none" stroke="#18193f" stroke-linecap="round" stroke-linejoin="round" stroke-miterlimit="10" stroke-width="3" d="M36.5,35.596V39.5c0,1.6-1.8,2.6-3.2,1.6l-8.7-6.2c-0.3-0.3-0.8-0.3-1.2,0l-8.7,6.3c-1.3,1-3.2,0-3.2-1.6l0-19.076"/><path fill="none" stroke="#18193f" stroke-linecap="round" stroke-linejoin="round" stroke-miterlimit="10" stroke-width="3" d="M35.726,30.259l-3.104,1.574c-1.085,0.55-2.353-0.331-2.167-1.506l0.551-3.48c0.072-0.457-0.083-0.92-0.421-1.247l-2.398-2.329 c-0.865-0.84-0.381-2.279,0.829-2.459l1.921-0.287"/><path fill="none" stroke="#18193f" stroke-linecap="round" stroke-linejoin="round" stroke-miterlimit="10" stroke-width="3" d="M35.081,16.802c0.551-1.07,2.121-1.07,2.671,0l1.385,2.69c0.217,0.421,0.63,0.713,1.109,0.785l3.57,0.534 c1.209,0.181,1.694,1.619,0.829,2.459L42.247,25.6c-0.336,0.327-0.493,0.79-0.421,1.247l0.551,3.48"/></svg>