<svg xmlns="http://www.w3.org/2000/svg"  viewBox="0 0 48 48" width="420px" height="420px"><path fill="#a5d6a7" d="M38.129,43.917H17.871c-3.197,0-5.788-2.591-5.788-5.788V17.871c0-3.197,2.591-5.788,5.788-5.788	h20.258c3.197,0,5.788,2.591,5.788,5.788v20.258C43.917,41.326,41.326,43.917,38.129,43.917z"/><path fill="#18193f" d="M31.328,34.068c0.648,0,2.876-1.164,2.752-4.041c-0.022-0.507-0.307-0.972-0.745-1.252	c-0.499-0.32-1.273-0.816-2.282-1.461c-0.921-0.588-2.11-0.63-3.071-0.104l-0.874,0.374c-0.455,0.32-1.039,0.383-1.552,0.169	c-0.799-0.334-2.026-0.981-3.177-2.132c-1.151-1.151-1.798-2.378-2.132-3.177c-0.215-0.513-0.151-1.097,0.169-1.552l0.374-0.874	c0.526-0.96,0.485-2.15-0.104-3.071c-0.646-1.01-1.142-1.783-1.461-2.282c-0.281-0.438-0.746-0.723-1.252-0.745	c-2.876-0.124-4.041,2.104-4.041,2.752c0,0.449-0.614,5.842,5.47,11.926S30.88,34.068,31.328,34.068z"/><path fill="none" stroke="#18193f" stroke-linecap="round" stroke-linejoin="round" stroke-width="3" d="M32.149,7.5H34.5	c3.314,0,6,2.686,6,6v21c0,3.314-2.686,6-6,6h-8.734"/><path fill="none" stroke="#18193f" stroke-linecap="round" stroke-linejoin="round" stroke-width="3" d="M19.851,40.5H13.5	c-3.314,0-6-2.686-6-6v-21c0-3.314,2.686-6,6-6h12.819"/></svg>