<svg xmlns="http://www.w3.org/2000/svg"  viewBox="0 0 48 48" width="420px" height="420px" fill-rule="evenodd" clip-rule="evenodd"><path fill="#9fa8da" fill-rule="evenodd" d="M12.264,11.007l20.812-1.533	c2.556-0.219,3.214-0.072,4.819,1.094l6.644,4.669C45.635,16.041,46,16.259,46,17.134v25.609c0,1.605-0.584,2.554-2.629,2.699	l-24.169,1.46c-1.535,0.073-2.265-0.146-3.068-1.167l-4.892-6.348C10.365,38.219,10,37.346,10,36.323V13.559	C10,12.246,10.584,11.152,12.264,11.007z" clip-rule="evenodd"/><path fill="#18193f" d="M42.5,34.616c-0.828,0-1.5,0.672-1.5,1.5v2.392c0,1.053-0.163,1.946-1.626,2.026l-25.262,1.458 C12.649,42.072,12,41.586,12,40.29V16.165c0-1.052,0.326-1.539,1.3-1.62l26.4-1.538c0.894-0.081,1.3,0.487,1.3,1.538v15.762 c0,0.828,0.672,1.5,1.5,1.5l0,0c0.828,0,1.5-0.672,1.5-1.5V11.91c0-0.973-0.406-1.215-1.624-2.107l-7.382-5.188 c-1.784-1.296-2.515-1.459-5.355-1.216l-9.821,0.723c-0.605,0.045-1.074,0.549-1.074,1.155v0.004c0,0.673,0.572,1.204,1.243,1.156 l10.75-0.783c1.882-0.163,2.864,0.492,3.601,1.064l3.846,2.781c0.164,0.081,0.573,0.571,0.081,0.571l-23.161,1.391 c-2.457,0.164-2.948,0.245-4.256-0.818L7.657,8.106C7.331,7.778,7.494,7.369,8.312,7.288l6.55-0.477 c0.606-0.044,1.074-0.548,1.074-1.156v0c0-0.673-0.572-1.205-1.244-1.155L6.515,5.102C4.649,5.263,4,6.479,4,7.937v25.294 c0,1.136,0.405,2.107,1.379,3.405l5.436,7.053c0.892,1.135,1.704,1.378,3.409,1.297l26.855-1.622 C43.351,43.203,44,42.148,44,40.365v-4.249C44,35.287,43.328,34.616,42.5,34.616L42.5,34.616z"/><path fill="#18193f" d="M29.9,36.014c0.993,1.241,1.326,1.655,2.652,1.655c0.828,0,1.822-0.331,2.9-0.91V18.546l1.242-0.247 c0.747-0.084,0.913-0.829,0.747-1.575l-5.72,0.334c-0.828,0.081-1.491,0.743-1.325,1.655l2.155,0.247v11.425L24.1,17.47 l-6.131,0.413c-1.161,0.084-1.575,1.159-1.408,1.905l2.071,0.166v16.308l-1.492,0.414c-0.579,0.165-0.745,0.993-0.579,1.324 l5.715-0.331c2.074,0,2.074-1.49,2.074-1.49L21.78,35.6V23.265L29.9,36.014z"/></svg>