<svg xmlns="http://www.w3.org/2000/svg"  viewBox="0 0 48 48" width="420px" height="420px"><path fill="#ffab91" d="M40,9h-8c-0.552,0-1,0.448-1,1v13.827L25.253,9.625C25.1,9.247,24.733,9,24.326,9H16	c-0.552,0-1,0.448-1,1v35.86c0,0.604,0.531,1.07,1.13,0.992l8-1.048c0.498-0.065,0.87-0.489,0.87-0.992V31.565l5.776,13.598	c0.139,0.326,0.439,0.555,0.79,0.601l8.303,1.088C40.469,46.93,41,46.464,41,45.86V10C41,9.448,40.552,9,40,9z"/><path fill="none" stroke="#18193f" stroke-linecap="round" stroke-linejoin="round" stroke-width="3" d="M36.458,24.5V6.438	c0-0.552-0.448-1-1-1h-7.375c-0.552,0-1,0.448-1,1v13.85"/><path fill="none" stroke="#18193f" stroke-linecap="round" stroke-linejoin="round" stroke-width="3" d="M27.083,41.282l8.24,1.125	c0.6,0.082,1.135-0.385,1.135-0.991v-9.395"/><path fill="none" stroke="#18193f" stroke-linecap="round" stroke-linejoin="round" stroke-width="3" d="M20.833,28.064V40.41	c0,0.5-0.369,0.923-0.865,0.991l-7.375,1.007c-0.6,0.082-1.135-0.385-1.135-0.991V6.438c0-0.552,0.448-1,1-1h7.375	c0.552,0,1,0.448,1,1"/><line x1="16.146" x2="11.775" y1="16.772" y2="6.983" fill="none" stroke="#18193f" stroke-linecap="round" stroke-linejoin="round" stroke-width="3"/><path fill="none" stroke="#18193f" stroke-linecap="round" stroke-linejoin="round" stroke-width="3" d="M33.89,42.212l-6.25-0.853	c-0.346-0.047-0.642-0.271-0.781-0.591l-8.546-19.141"/><line x1="20.833" x2="35.422" y1="6.438" y2="40.166" fill="none" stroke="#18193f" stroke-linecap="round" stroke-linejoin="round" stroke-width="3"/></svg>