<svg xmlns="http://www.w3.org/2000/svg"  viewBox="0 0 48 48" width="420px" height="420px"><circle cx="28" cy="28" r="18" fill="#90caf9"/><circle cx="15.5" cy="15.5" r="2.5" fill="#18193f"/><path fill="#18193f" d="M17,35h-3c-0.553,0-1-0.447-1-1V21c0-0.553,0.447-1,1-1h3c0.553,0,1,0.447,1,1v13	C18,34.553,17.553,35,17,35z"/><path fill="#18193f" d="M29,20c-1.538,0-2.937,0.586-4,1.541V21c0-0.553-0.447-1-1-1h-3c-0.553,0-1,0.447-1,1v13	c0,0.553,0.447,1,1,1h3c0.553,0,1-0.447,1-1v-7.5c0-1.379,1.121-2.5,2.5-2.5s2.5,1.121,2.5,2.5V34c0,0.553,0.447,1,1,1h3	c0.553,0,1-0.447,1-1v-8C35,22.691,32.309,20,29,20z"/><path fill="none" stroke="#18193f" stroke-linecap="round" stroke-linejoin="round" stroke-miterlimit="10" stroke-width="3" d="M30.187,41.44C28.252,42.126,26.17,42.5,24,42.5C13.783,42.5,5.5,34.217,5.5,24c0-4.69,1.745-8.972,4.621-12.232"/><path fill="none" stroke="#18193f" stroke-linecap="round" stroke-linejoin="round" stroke-miterlimit="10" stroke-width="3" d="M16.98,6.878C19.145,5.99,21.515,5.5,24,5.5c10.217,0,18.5,8.283,18.5,18.5c0,5.267-2.201,10.019-5.733,13.388"/></svg>