<svg xmlns="http://www.w3.org/2000/svg"  viewBox="0 0 48 48" width="420px" height="420px"><circle cx="28" cy="28" r="18" fill="#8ce7f2"/><path fill="none" stroke="#18193f" stroke-linecap="round" stroke-linejoin="round" stroke-width="3" d="M14.748,40.024	C9.22,36.825,5.5,30.847,5.5,24C5.5,13.783,13.783,5.5,24,5.5"/><path fill="none" stroke="#18193f" stroke-linecap="round" stroke-linejoin="round" stroke-width="3" d="M30.37,6.626	C37.449,9.222,42.5,16.021,42.5,24c0,10.217-8.283,18.5-18.5,18.5c-1.492,0-2.942-0.177-4.332-0.51"/><path fill="none" stroke="#18193f" stroke-linecap="round" stroke-linejoin="round" stroke-width="3" d="M24,27.834l2.475-1.359	l4.372-7.964c0.481-0.877-0.481-1.839-1.358-1.358l-7.964,4.372l-4.372,7.964c-0.481,0.877,0.481,1.839,1.358,1.358l0.966-0.53"/><line x1="24" x2="24" y1="5.5" y2="8.5" fill="none" stroke="#18193f" stroke-linecap="round" stroke-width="3"/><line x1="14.75" x2="16.25" y1="7.979" y2="10.577" fill="none" stroke="#18193f" stroke-linecap="round" stroke-width="3"/><line x1="7.979" x2="10.577" y1="14.75" y2="16.25" fill="none" stroke="#18193f" stroke-linecap="round" stroke-width="3"/><line x1="5.5" x2="8.5" y1="24" y2="24" fill="none" stroke="#18193f" stroke-linecap="round" stroke-width="3"/><line x1="7.979" x2="10.577" y1="33.25" y2="31.75" fill="none" stroke="#18193f" stroke-linecap="round" stroke-width="3"/><line x1="14.75" x2="16.25" y1="40.021" y2="37.423" fill="none" stroke="#18193f" stroke-linecap="round" stroke-width="3"/><line x1="24" x2="24" y1="42.5" y2="39.5" fill="none" stroke="#18193f" stroke-linecap="round" stroke-width="3"/><line x1="33.25" x2="31.75" y1="40.021" y2="37.423" fill="none" stroke="#18193f" stroke-linecap="round" stroke-width="3"/><line x1="40.021" x2="37.423" y1="33.25" y2="31.75" fill="none" stroke="#18193f" stroke-linecap="round" stroke-width="3"/><line x1="42.5" x2="39.5" y1="24" y2="24" fill="none" stroke="#18193f" stroke-linecap="round" stroke-width="3"/><line x1="40.021" x2="37.423" y1="14.75" y2="16.25" fill="none" stroke="#18193f" stroke-linecap="round" stroke-width="3"/><line x1="33.25" x2="31.75" y1="7.979" y2="10.577" fill="none" stroke="#18193f" stroke-linecap="round" stroke-width="3"/></svg>