<svg xmlns="http://www.w3.org/2000/svg" viewBox="0 0 48 48" width="420px" height="420px">
    <path fill="#ffe082"
        d="M38.761,25.507l-10.16,7.607c-0.356,0.267-0.846,0.266-1.201-0.002l-10.161-7.658v16.443 c0,0.552-0.448,1-1,1h-4.21c-1.604,0-2.904-1.3-2.904-2.904V17.157c0-2.406,1.95-4.356,4.356-4.356l0,0 c0.984,0,1.899,0.321,2.628,0.871L28,22.631l11.891-8.958c0.727-0.543,1.651-0.871,2.628-0.871l0,0c2.406,0,4.356,1.95,4.356,4.356 v22.836c0,1.604-1.3,2.904-2.904,2.904h-4.21c-0.552,0-1-0.448-1-1V25.507z" />
    <line x1="17.19" x2="5.796" y1="24.293" y2="15.706" fill="none" stroke="#18193f" stroke-linecap="round"
        stroke-linejoin="round" stroke-miterlimit="10" stroke-width="3" />
    <polyline fill="none" stroke="#18193f" stroke-linecap="round" stroke-linejoin="round" stroke-miterlimit="10"
        stroke-width="3" points="42.054,15.819 24,29.425 21.54,27.571" />
    <path fill="none" stroke="#18193f" stroke-linecap="round" stroke-linejoin="round" stroke-miterlimit="10"
        stroke-width="3" d="M42.417,24.574v11.123c0,1.565-1.268,2.833-2.833,2.833H34.5V11.537" />
    <path fill="none" stroke="#18193f" stroke-linecap="round" stroke-linejoin="round" stroke-miterlimit="10"
        stroke-width="3"
        d="M5.583,30.213V13.417c0-2.347,1.903-4.25,4.25-4.25l0,0c0.961,0,1.853,0.313,2.564,0.85L24,18.757l11.602-8.741 c0.71-0.53,1.611-0.85,2.564-0.85l0,0c2.347,0,4.25,1.903,4.25,4.25v6.009" />
    <path fill="none" stroke="#18193f" stroke-linecap="round" stroke-linejoin="round" stroke-miterlimit="10"
        stroke-width="3" d="M13.5,11.69v26.841H8.417c-1.565,0-2.833-1.268-2.833-2.833" />
</svg>