<svg xmlns="http://www.w3.org/2000/svg"  viewBox="0 0 48 48" width="420px" height="420px"><path fill="#ffab91" d="M27.86,14c-6.144,0-11.916,0.469-14.989,1.125c-2.048,0.469-3.817,1.875-4.19,4.031	c-0.371,2.25-0.744,5.125-0.744,9.344s0.373,7,0.838,9.344c0.373,2.063,2.141,3.563,4.19,4.031C16.223,42.531,21.809,43,27.953,43	s11.73-0.469,14.989-1.125c2.048-0.469,3.817-1.875,4.19-4.031c0.373-2.344,0.838-5.219,0.931-9.438	c0-4.219-0.466-7.094-0.931-9.438c-0.373-2.063-2.141-3.563-4.19-4.031C39.684,14.469,34.005,14,27.86,14L27.86,14z"/><path fill="none" stroke="#18193f" stroke-linecap="round" stroke-linejoin="round" stroke-width="3" d="M28.79,10.093	C27.206,10.034,25.549,10,23.857,10l0,0c-6.278,0-12.176,0.469-15.316,1.125C6.448,11.594,4.641,13,4.26,15.156	C3.881,17.406,3.5,20.281,3.5,24.5s0.381,7,0.856,9.344c0.381,2.063,2.188,3.563,4.281,4.031c1.085,0.214,2.423,0.408,3.951,0.572"/><path fill="none" stroke="#18193f" stroke-linecap="round" stroke-linejoin="round" stroke-width="3" d="M18.5,38.881	C20.233,38.958,22.067,39,23.952,39c6.278,0,11.986-0.469,15.316-1.125c2.093-0.469,3.9-1.875,4.281-4.031	c0.381-2.344,0.856-5.219,0.951-9.438c0-4.219-0.476-7.094-0.951-9.438c-0.381-2.063-2.188-3.563-4.281-4.031	c-0.888-0.125-1.952-0.25-3.154-0.366"/><path fill="none" stroke="#18193f" stroke-linecap="round" stroke-linejoin="round" stroke-width="3" d="M18.5,24v4.514	c0,1.522,1.663,2.476,3,1.721l7.99-4.514c1.347-0.761,1.347-2.682,0-3.443l-7.99-4.514c-1.337-0.755-3,0.199-3,1.721"/></svg>