<svg xmlns="http://www.w3.org/2000/svg" viewBox="0 0 48 48" width="420px" height="420px">
    <path fill="#a5d6a7"
        d="M43.1,15H41v-2.1c0-1.6-1.3-2.9-2.9-2.9H12.9c-1.6,0-2.9,1.3-2.9,2.9v25.2c0,1.6,1.3,2.9,2.9,2.9H15v2.1	c0,1.6,1.3,2.9,2.9,2.9h25.2c1.6,0,2.9-1.3,2.9-2.9V17.9C46,16.3,44.7,15,43.1,15z" />
    <path fill="none" stroke="#18193f" stroke-linecap="round" stroke-linejoin="round" stroke-miterlimit="10"
        stroke-width="3" d="M41.5,10.5v24c0,3.9-3.1,7-7,7h-21c-1.7,0-3-1.3-3-3v-2" />
    <path fill="none" stroke="#18193f" stroke-linecap="round" stroke-linejoin="round" stroke-miterlimit="10"
        stroke-width="3" d="M36.5,17.6v15.9c0,1.7-1.3,3-3,3h-25c-1.7,0-3-1.3-3-3v-5.1" />
    <path fill="none" stroke="#18193f" stroke-linecap="round" stroke-linejoin="round" stroke-miterlimit="10"
        stroke-width="3" d="M5.5,21.7V8.5c0-1.7,1.3-3,3-3h25c1.7,0,3,1.3,3,3v2.2" />
    <polyline fill="none" stroke="#18193f" stroke-linecap="round" stroke-linejoin="round" stroke-miterlimit="10"
        stroke-width="3" points="15.5,21.5 19.5,25.5 28.5,16.5" />
</svg>