<svg xmlns="http://www.w3.org/2000/svg"  viewBox="0 0 48 48" width="420px" height="420px"><path fill="#90caf9" d="M43.985,30.161c0.095-0.708,0.161-1.426,0.161-2.161c0-8.918-7.229-16.146-16.146-16.146	c-0.735,0-1.452,0.067-2.161,0.161c-1.407-0.724-2.998-1.14-4.689-1.14c-5.675,0-10.275,4.6-10.275,10.275	c0,1.691,0.416,3.282,1.14,4.689c-0.095,0.708-0.161,1.426-0.161,2.161c0,8.918,7.229,16.146,16.146,16.146	c0.735,0,1.452-0.067,2.161-0.161c1.407,0.724,2.998,1.14,4.689,1.14c5.675,0,10.275-4.6,10.275-10.275	C45.125,33.159,44.709,31.568,43.985,30.161z"/><path fill="none" stroke="#18193f" stroke-linecap="round" stroke-linejoin="round" stroke-width="3" d="M20.548,40.138	C21.661,40.375,22.816,40.5,24,40.5c0.751,0,1.484-0.068,2.208-0.165C27.646,41.075,29.272,41.5,31,41.5	c5.799,0,10.5-4.701,10.5-10.5c0-1.728-0.425-3.354-1.165-4.792C40.432,25.484,40.5,24.751,40.5,24	c0-7.177-4.581-13.283-10.979-15.554"/><path fill="none" stroke="#18193f" stroke-linecap="round" stroke-linejoin="round" stroke-width="3" d="M21.792,7.665	C20.354,6.925,18.728,6.5,17,6.5C11.201,6.5,6.5,11.201,6.5,17c0,1.728,0.425,3.354,1.165,4.792C7.568,22.516,7.5,23.249,7.5,24	c0,5.884,3.08,11.049,7.716,13.97"/><path fill="#18193f" d="M16.97,31.316c0-1.037,1.089-1.624,1.832-1.624s2.816,1.451,4.803,1.451	c1.054,0,3.421-0.103,3.421-2.29c0-3.585-10.115-3.308-10.115-9.274c0-1.038,0.285-5.795,7.784-5.795c2.016,0,5.71,0.577,5.71,2.493	c0,1.406-0.958,1.769-1.6,1.769c-1.244,0-1.745-1.123-4.285-1.123c-3.508,0-3.421,2.102-3.421,2.408	c0,3.017,10.073,3.017,10.073,9.255c0,6.141-7.491,5.814-8.58,5.814C21.474,34.4,16.97,33.856,16.97,31.316z"/></svg>