<svg xmlns="http://www.w3.org/2000/svg"  viewBox="0 0 48 48" width="420px" height="420px"><path fill="#ffe082" d="M26.4,9.1C20,9.8,14.8,15,14.1,21.4c-0.7,5.9,2.4,11.2,7.1,13.8V38c0,1.4,1.1,2.5,2.5,2.5h-0.3V44	c0,1.4,1.1,2.5,2.5,2.5H30c1.4,0,2.5-1.1,2.5-2.5v-3.5h-0.3c1.4,0,2.5-1.1,2.5-2.5v-2.8C39,32.8,42,28.2,42,23	C42,14.7,34.8,8.2,26.4,9.1z"/><path fill="none" stroke="#18193f" stroke-linecap="round" stroke-linejoin="round" stroke-miterlimit="10" stroke-width="3" d="M37.7,21.5c0.2-0.8,0.2-1.7,0.2-2.6c0-8.2-7.1-14.8-15.5-13.9c-2.4,0.3-4.7,1.2-6.6,2.5"/><path fill="none" stroke="#18193f" stroke-linecap="round" stroke-linejoin="round" stroke-miterlimit="10" stroke-width="3" d="M11.5,12.8c-0.7,1.4-1.2,3-1.4,4.6c-0.7,5.9,2.4,11.2,7.1,13.8V34c0,1.4,1.1,2.5,2.5,2.5h8.4	c1.4,0,2.5-1.1,2.5-2.5v-2.8c1.8-1,3.3-2.3,4.5-3.9"/><path fill="none" stroke="#18193f" stroke-linecap="round" stroke-linejoin="round" stroke-miterlimit="10" stroke-width="3" d="M26,42.5H22c-1.4,0-2.5-1.1-2.5-2.5v-3.5h9V40C28.5,41.4,27.4,42.5,26,42.5z"/></svg>