<svg xmlns="http://www.w3.org/2000/svg"  viewBox="0 0 48 48" width="420px" height="420px"><path fill="#ffe082" d="M11.613,33.825c0,0-7.113-11.325,6.887-14.325s13,7,13,7v0.44c0,0.924,0.612,1.736,1.5,1.99l0,0	c1.087-1.067,2.659-1.64,4.355-1.359c1.98,0.328,3.618,1.881,4.031,3.845c0.68,3.234-1.771,6.084-4.886,6.084c0,0-2.037,8.185-11,9	c-11,1-13-7-13-7c-1.657,0-3-1.343-3-3c0-1.657,1.343-3,3-3L11.613,33.825z"/><ellipse cx="24.372" cy="22.55" fill="#18193f" rx="1.297" ry="2.594" transform="rotate(-7.452 24.372 22.55)"/><path fill="none" stroke="#18193f" stroke-linecap="round" stroke-linejoin="round" stroke-width="3" d="M5.5,19.5c0,0-6-13,8-11"/><path fill="none" stroke="#18193f" stroke-linecap="round" stroke-linejoin="round" stroke-width="3" d="M10.5,11.5	c0,0,14.238-9.967,17.486-2.87"/><path fill="none" stroke="#18193f" stroke-linecap="round" stroke-linejoin="round" stroke-width="3" d="M7.5,29.5c0,0-7-11,7-14	s13,7,13,7v2"/><path fill="none" stroke="#18193f" stroke-linecap="round" stroke-linejoin="round" stroke-width="3" d="M26.5,24.5	c2.209,0,4,1.567,4,3.5s-1.791,3.5-4,3.5s-4-1.567-4-3.5"/><path fill="none" stroke="#18193f" stroke-linecap="round" stroke-linejoin="round" stroke-width="3" d="M12.5,21.5c0,0,4-5,8,2"/><path fill="none" stroke="#18193f" stroke-linecap="round" stroke-linejoin="round" stroke-width="3" d="M17.5,24.5c0,0,0,0,3-1"/><path fill="none" stroke="#18193f" stroke-linecap="round" stroke-width="3" d="M23.5,30.5c0,0,1,7-4,7	c-3.394,0-5.176-3.918-5.97-6.434c-0.399-1.266,0.514-2.566,1.84-2.602c1.433-0.039,3.675,0.172,7.129,1.036"/><path fill="none" stroke="#18193f" stroke-linecap="round" stroke-width="3" d="M23.5,15.5c0,0,18,0,4.5,4.5"/><path fill="none" stroke="#18193f" stroke-linecap="round" stroke-linejoin="round" stroke-width="3" d="M14.748,41.8	c1.747,0.628,3.96,0.954,6.752,0.7c8.963-0.815,11-9,11-9c2.761,0,5-2.239,5-5s-2.239-5-5-5c-1.363,0-2.598,0.545-3.5,1.43"/><path fill="none" stroke="#18193f" stroke-linecap="round" stroke-linejoin="round" stroke-width="3" d="M8.5,29.5	c-1.657,0-3,1.343-3,3c0,1.657,1.343,3,3,3c0,0,0.383,1.531,1.735,3.17"/><line x1="35.5" x2="40.5" y1="23.5" y2="20.5" fill="none" stroke="#18193f" stroke-linecap="round" stroke-linejoin="round" stroke-width="3"/><path fill="none" stroke="#18193f" stroke-linecap="round" stroke-linejoin="round" stroke-width="3" d="M38.575,19.285l-1.182-1.613	c-0.816-1.114-0.575-2.678,0.538-3.494l0,0c1.114-0.816,2.678-0.575,3.494,0.538l1.182,1.613c0.816,1.114,0.575,2.678-0.538,3.494	l0,0C40.956,20.639,39.391,20.398,38.575,19.285z"/></svg>