<svg xmlns="http://www.w3.org/2000/svg"  viewBox="0 0 48 48" width="420px" height="420px"><circle cx="28" cy="28" r="18.125" fill="#ffe082"/><path fill="none" stroke="#18193f" stroke-linecap="round" stroke-linejoin="round" stroke-width="3" d="M6.683,30.523	C5.918,28.494,5.5,26.296,5.5,24C5.5,13.783,13.783,5.5,24,5.5c2.206,0,4.321,0.386,6.283,1.094"/><path fill="none" stroke="#18193f" stroke-linecap="round" stroke-linejoin="round" stroke-width="3" d="M37.081,10.919	C40.429,14.266,42.5,18.891,42.5,24c0,10.217-8.283,18.5-18.5,18.5c-5.391,0-10.244-2.306-13.625-5.986"/><circle cx="24" cy="24" r="7.5" fill="none" stroke="#18193f" stroke-width="3"/><line x1="24" x2="34.234" y1="16.5" y2="16.5" fill="none" stroke="#18193f" stroke-linecap="round" stroke-linejoin="round" stroke-width="3"/><line x1="25.966" x2="21.995" y1="35.595" y2="42.472" fill="none" stroke="#18193f" stroke-linecap="round" stroke-linejoin="round" stroke-width="3"/><line x1="17.505" x2="11.646" y1="27.75" y2="17.602" fill="none" stroke="#18193f" stroke-linecap="round" stroke-linejoin="round" stroke-width="3"/></svg>