<svg xmlns="http://www.w3.org/2000/svg"  viewBox="0 0 48 48" width="420px" height="420px"><path fill="#ffab91" d="M43.8,33.8c0-2.4-2.6-3.4-3.1-3.3c0-2.3,0-5.1,0-5.1c0-1.9-5.1-4.1-12.8-4.1s-12.8,2.2-12.8,4.1	c0,0,0,2.8,0,5.1c-0.5-0.1-3.1,0.8-3.1,3.3c0,3.1,1.6,3.5,3.2,3.9c0,0,0,0.1,0,0.1c0,6.3,4.6,6.6,6.4,7.7c2,1.1,2.9,2.4,6.2,2.4	s4.2-1.3,6.2-2.4c1.8-1,6.4-1.3,6.4-7.7c0,0,0-0.1,0-0.1C42.2,37.3,43.8,36.9,43.8,33.8z"/><path fill="#ffab91" d="M42.8,31.6c0,0,4.1-1,4.1-6.1c0-4.7-6.7-17.3-18.9-17.3C15.7,8.1,9.1,20.7,9.1,25.4c0,4.6,4.1,6.1,4.1,6.1"/><path fill="none" stroke="#18193f" stroke-linecap="round" stroke-linejoin="round" stroke-width="3" d="M36.2,21.9c-2.2,0.6-6.8,1.6-12.2,1.6c-5.4,0-10.1-1.1-12.2-1.6"/><ellipse cx="19.5" cy="28.5" fill="#18193f" rx="1.5" ry="2.5"/><ellipse cx="28.5" cy="28.5" fill="#18193f" rx="1.5" ry="2.5"/><path fill="#18193f" d="M30.8,31.5c-0.5,0.3-1.1,0.6-1.7,0.8c-0.4,0.2-0.7,0.5-0.8,0.9C27.8,34.8,26.1,36,24,36	c-2.1,0-3.8-1.2-4.3-2.8c-0.1-0.4-0.4-0.8-0.8-0.9c-0.6-0.3-1.2-0.6-1.6-0.9c-1-0.6-2.3,0-2.3,1.2c0,0,0,0,0,0.1	c0,2.6,1.7,2.7,1.7,2.7s0.2,2.5,2,2.5c0.8,0,1.3-0.4,1.3-0.4c0.1,0.1,0.9,1.6,2.2,1.6c1,0,1.7-0.7,1.7-0.7s0.8,0.7,1.8,0.7	c1.2,0,2.1-1.5,2.1-1.5s0.5,0.4,1.4,0.4s1.8-0.7,2-2.5c0.7,0,1.7-1.1,1.7-2.6c0,0,0,0,0-0.1C33,31.6,31.8,30.9,30.8,31.5z"/><path fill="none" stroke="#18193f" stroke-linecap="round" stroke-linejoin="round" stroke-width="3" d="M35.7,20.2c-1.7-1.4-6-2.7-11.7-2.7c-7.5,0-12.5,2.1-12.5,4c0,0,0,2.7,0,5c-0.5-0.1-3,0.8-3,3.2	c0,3,1.6,3.5,3.1,3.8c0,0,0,0.1,0,0.1c0,6.2,4.6,6.5,6.3,7.5c1.9,1.1,2.9,2.4,6.1,2.4s4.2-1.2,6.1-2.4"/><path fill="none" stroke="#18193f" stroke-linecap="round" stroke-linejoin="round" stroke-width="3" d="M34.9,38.4c0.9-1,1.5-2.5,1.5-4.8c0,0,0-0.1,0-0.1c1.5-0.4,3.1-0.8,3.1-3.8c0-2.4-2.5-3.3-3-3.2c0-2.3,0-5,0-5	c0-0.4-0.3-0.9-0.8-1.3"/><path fill="none" stroke="#18193f" stroke-linecap="round" stroke-linejoin="round" stroke-width="3" d="M6.9,16.5c-0.9,2-1.4,3.8-1.4,5c0,3.6,2.5,5.2,3.5,5.8"/><path fill="none" stroke="#18193f" stroke-linecap="round" stroke-linejoin="round" stroke-width="3" d="M39,27.3c1-0.4,3.5-1.9,3.5-5.8c0-4.6-6.5-17-18.5-17c-5.7,0-10.2,2.8-13.3,6.2"/><path fill="#18193f" d="M26.9,14.7L26,11l-1.6,1.8c-0.2,0.2-0.5,0.2-0.7,0L22,11l-0.9,3.7c-0.1,0.3-0.4,0.5-0.6,0.4l-1.9-0.7	c-0.3-0.1-0.4-0.5-0.3-0.7l2.5-5.3c0.1-0.3,0.5-0.4,0.7-0.2l2.3,1.6c0.2,0.1,0.4,0.1,0.6,0l2.3-1.6c0.3-0.2,0.6-0.1,0.7,0.2l2.5,5.3	c0.1,0.3,0,0.6-0.3,0.7l-1.9,0.7C27.2,15.2,26.9,15,26.9,14.7z"/></svg>