<svg xmlns="http://www.w3.org/2000/svg"  viewBox="0 0 48 48" width="420px" height="420px"><path fill="#90caf9" d="M33.2,10H17c-1.7,0-3,1.3-3,3v31c0,1.7,1.3,3,3,3h23c1.7,0,3-1.3,3-3V19.8c0-0.5-0.2-1-0.6-1.4l-7.8-7.8	C34.2,10.2,33.7,10,33.2,10z"/><path fill="none" stroke="#18193f" stroke-linecap="round" stroke-linejoin="round" stroke-miterlimit="10" stroke-width="3" d="M22.1,42.5h13.4c1.7,0,3-1.3,3-3v-25h-7c-1.1,0-2-0.9-2-2v-7"/><path fill="none" stroke="#18193f" stroke-linecap="round" stroke-linejoin="round" stroke-miterlimit="10" stroke-width="3" d="M24,5.5H12.5c-1.7,0-3,1.3-3,3v31c0,1.7,1.3,3,3,3h3.9"/><line x1="38.5" x2="29.5" y1="14.5" y2="5.5" fill="none" stroke="#18193f" stroke-linecap="round" stroke-linejoin="round" stroke-miterlimit="10" stroke-width="3"/></svg>