<svg xmlns="http://www.w3.org/2000/svg"  viewBox="0 0 48 48" width="420px" height="420px"><path fill="#8ce7f2" d="M42.661,44.345l-29.894-4.098C11.754,40.108,11,39.264,11,38.267V17.733 c0-0.997,0.754-1.842,1.767-1.98l29.894-4.098C43.896,11.486,45,12.42,45,13.636v28.729C45,43.58,43.896,44.514,42.661,44.345z"/><line x1="12.404" x2="36.447" y1="23.991" y2="23.991" fill="none" stroke="#18193f" stroke-linecap="round" stroke-linejoin="round" stroke-miterlimit="10" stroke-width="3"/><line x1="20.6" x2="20.6" y1="33.149" y2="14.17" fill="none" stroke="#18193f" stroke-linecap="round" stroke-linejoin="round" stroke-miterlimit="10" stroke-width="3"/><path fill="none" stroke="#18193f" stroke-linecap="round" stroke-linejoin="round" stroke-miterlimit="10" stroke-width="3" d="M40.562,32.904v5.46c0,1.215-1.075,2.15-2.279,1.98L9.159,36.247c-0.987-0.139-1.721-0.984-1.721-1.98V22.34"/><path fill="none" stroke="#18193f" stroke-linecap="round" stroke-linejoin="round" stroke-miterlimit="10" stroke-width="3" d="M7.438,16.468v-2.735c0-0.997,0.734-1.842,1.721-1.98l29.125-4.098c1.204-0.169,2.279,0.765,2.279,1.98V24"/></svg>