<svg xmlns="http://www.w3.org/2000/svg"  viewBox="0 0 48 48" width="420px" height="420px"><path fill="#ffe082" d="M48,28.9c0-2.5-2.1-4.6-4.6-4.6c-1.2,0-2.2,0.5-3.1,1.2c-3.3-2.6-8-4.3-13.3-4.3s-10,1.7-13.3,4.3	c-0.8-0.7-1.9-1.2-3.1-1.2c-2.5,0-4.6,2.1-4.6,4.6c0,2,1.3,3.7,3.1,4.3c0,0.3-0.1,0.5-0.1,0.8c0,7.1,8,12.8,17.9,12.8	S44.9,41.1,44.9,34c0-0.3,0-0.5-0.1-0.8C46.7,32.6,48,30.9,48,28.9z"/><path fill="#18193f" d="M36.5,11C34.6,11,33,9.4,33,7.5S34.6,4,36.5,4S40,5.6,40,7.5S38.4,11,36.5,11z"/><path fill="none" stroke="#18193f" stroke-linecap="round" stroke-linejoin="round" stroke-width="3" d="M38.7,35.5c1.1-1.7,1.8-3.5,1.8-5.5c0-0.3,0-0.5-0.1-0.8c1.8-0.6,3.1-2.3,3.1-4.2c0-2.5-2-4.5-4.5-4.5	c-1.2,0-2.2,0.4-3,1.2c-3.2-2.5-7.8-4.2-13-4.2c-1.6,0-3.1,0.1-4.5,0.4"/><path fill="none" stroke="#18193f" stroke-linecap="round" stroke-linejoin="round" stroke-width="3" d="M12.5,20c-0.9,0.5-1.7,1-2.5,1.6c-0.8-0.7-1.8-1.2-3-1.2c-2.5,0-4.5,2-4.5,4.5c0,2,1.3,3.6,3.1,4.2	c0,0.3-0.1,0.5-0.1,0.8c0,6.9,7.8,12.5,17.5,12.5c3.2,0,6.2-0.6,8.8-1.7"/><polyline fill="none" stroke="#18193f" stroke-linejoin="round" stroke-width="3" points="23.5,17.5 26,5.5 36.5,7.5"/><circle cx="15.5" cy="27.5" r="3" fill="#18193f"/><circle cx="30.5" cy="27.5" r="3" fill="#18193f"/><path fill="none" stroke="#18193f" stroke-linecap="round" stroke-linejoin="round" stroke-width="3" d="M29.5,35.5c0,0-2,2-6.5,2s-6.5-2-6.5-2"/></svg>