<svg xmlns="http://www.w3.org/2000/svg"  viewBox="0 0 48 48" width="420px" height="420px"><path fill="#90caf9" d="M45.363,33.112l0.286-0.13C46.199,31.356,46.5,29.663,46.5,28c0-3.345-1.223-6.399-3.238-8.758	c-9.395-12.745-24.347-8.96-30.248-6.789c-0.89,0.327-0.86,1.59,0.04,1.888c3.823,1.264,4.932,1.808,7.446,5.159	c-7.411,0-11.527,4.944-13.161,7.503c-0.417,0.653,0.02,1.507,0.795,1.541c2.603,0.113,7.763,0.515,11.366,1.956	c-4.218,2.531-9.147,7.196-11.787,11.596c-0.471,0.785,0.299,1.726,1.171,1.447c5.134-1.64,11.71-1.459,15.888-1.097l0.089-0.04	c0.764,1.209,2.019,2.341,3.695,3.094c5.359,2.408,16.689-1,18.915-8C48.302,34.886,47.271,33.528,45.363,33.112z"/><path fill="none" stroke="#18193f" stroke-linecap="round" stroke-linejoin="round" stroke-width="3" d="M21.056,6.195	c-4.953-0.006-9.403,1.287-12.042,2.258c-0.89,0.327-0.86,1.59,0.04,1.888c3.823,1.265,4.933,1.808,7.446,5.159	c-7.411,0-11.527,4.944-13.161,7.503c-0.417,0.653,0.02,1.507,0.795,1.541c2.603,0.113,7.763,0.515,11.366,1.956	c-4.218,2.531-9.147,7.196-11.787,11.596c-0.471,0.785,0.299,1.726,1.171,1.447c2.785-0.89,5.993-1.243,9.014-1.323"/><path fill="none" stroke="#18193f" stroke-linecap="round" stroke-linejoin="round" stroke-width="3" d="M41.649,28.982	C42.199,27.356,42.5,25.663,42.5,24c0-3.345-1.223-6.399-3.238-8.758c-3.005-4.077-6.579-6.462-10.243-7.75"/><path fill="none" stroke="#18193f" stroke-linecap="round" stroke-linejoin="round" stroke-width="3" d="M41.691,29.06	c0.091-0.259,0.173-0.526,0.243-0.802c0.795-3.115-0.129-6.041-2.065-6.535c-1.06-0.271-2.202,0.244-3.149,1.276	c-0.804,0.876-2.215,0.569-2.715-0.509c-1.15-2.482-3.185-4.132-5.506-4.132c-3.546,0-6.428,3.853-6.499,8.642"/><path fill="none" stroke="#18193f" stroke-linecap="round" stroke-linejoin="round" stroke-width="3" d="M24.556,41.5	c5.359,2.408,16.689-1,18.915-8s-8.901-5-14.464,0C17.88,29.5,17.88,38.5,24.556,41.5z"/><path fill="none" stroke="#18193f" stroke-linecap="round" stroke-linejoin="round" stroke-width="3" d="M21.5,16.5	c0,0-0.715-1.967-0.331-4.238c0.112-0.659,0.802-1.046,1.41-0.768L27.5,13.75"/><path fill="none" stroke="#18193f" stroke-linecap="round" stroke-linejoin="round" stroke-width="3" d="M35.5,10.5l5.776-0.825	c0.636-0.091,1.192,0.427,1.139,1.068c-0.165,1.975-0.599,5.655-1.574,6.119"/><ellipse cx="43.811" cy="28.847" fill="#18193f" rx="4.335" ry="2.618" transform="rotate(-18.933 43.807 28.843)"/><ellipse cx="28.5" cy="26.5" fill="#18193f" rx="1.5" ry="2.5"/><ellipse cx="38" cy="27" fill="#18193f" rx="1" ry="2"/><path fill="#fff" stroke="#18193f" stroke-linecap="round" stroke-linejoin="round" stroke-width="2" d="M25,37c0,0,3,2,7,0"/></svg>