<svg xmlns="http://www.w3.org/2000/svg"  viewBox="0 0 48 48" width="420px" height="420px"><path fill="#f48fb1" d="M17.318,45.681C15.367,46.733,13,45.32,13,43.103V12.896c0-2.217,2.368-3.63,4.318-2.577	l28.315,15.275c1.914,1.033,1.914,3.779,0,4.811L17.318,45.681z"/><path fill="none" stroke="#18193f" stroke-linecap="round" stroke-linejoin="round" stroke-miterlimit="10" stroke-width="3" d="M21.365,37.56l-8.441,4.553c-1.998,1.078-4.424-0.369-4.424-2.64V22"/><path fill="none" stroke="#18193f" stroke-linecap="round" stroke-linejoin="round" stroke-miterlimit="10" stroke-width="3" d="M8.5,14.723V8.527c0-2.271,2.426-3.719,4.424-2.64l29.008,15.649c1.961,1.058,1.961,3.871,0,4.929l-15.504,8.363"/><line x1="14.312" x2="33.53" y1="36.461" y2="17.516" fill="none" stroke="#18193f" stroke-linecap="round" stroke-linejoin="round" stroke-miterlimit="10" stroke-width="3"/><line x1="14.933" x2="33.53" y1="12.151" y2="30.484" fill="none" stroke="#18193f" stroke-linecap="round" stroke-linejoin="round" stroke-miterlimit="10" stroke-width="3"/></svg>