<svg xmlns="http://www.w3.org/2000/svg" viewBox="0 0 48 48" width="420px" height="420px" fill-rule="evenodd"
    clip-rule="evenodd" baseProfile="basic">
    <path fill="#ffab91" fill-rule="evenodd"
        d="M27.999,9.998	c9.936,0,18,8.064,18,18c0,9.936-8.064,18-18,18s-18-8.064-18-18C9.999,18.062,18.063,9.998,27.999,9.998z"
        clip-rule="evenodd" />
    <path fill="#18193f" fill-rule="evenodd"
        d="M40.502,32.469	c-0.765-0.317-1.128-1.196-0.809-1.96c0.832-2.004,1.293-4.203,1.293-6.511c0-9.375-7.612-16.987-16.987-16.987	c-1.135,0-2.241,0.112-3.312,0.324c-0.812,0.161-1.603-0.368-1.763-1.18c-0.161-0.812,0.368-1.603,1.18-1.763	c1.26-0.249,2.561-0.381,3.895-0.381c11.032,0,19.987,8.955,19.987,19.987c0,2.712-0.543,5.3-1.524,7.661	C42.145,32.425,41.266,32.787,40.502,32.469z"
        clip-rule="evenodd" />
    <path fill="#18193f" fill-rule="evenodd"
        d="M4.013,23.998	c0-4.727,1.645-9.079,4.395-12.501c0.519-0.645,1.464-0.748,2.109-0.231c0.645,0.519,0.748,1.464,0.231,2.109	c-2.339,2.911-3.735,6.604-3.735,10.623c0,9.376,7.611,16.987,16.987,16.987c3.293,0,6.367-0.937,8.969-2.561	c0.703-0.439,1.628-0.224,2.067,0.479c0.439,0.703,0.224,1.628-0.479,2.067c-3.064,1.912-6.687,3.016-10.557,3.016	C12.966,43.985,4.013,35.031,4.013,23.998z"
        clip-rule="evenodd" />
    <path fill="#18193f" fill-rule="evenodd"
        d="M26.993,17.003	c0-2.209,1.792-4.007,4.004-4.007c2.211,0,4.004,1.797,4.004,4.007c0,2.211-1.793,4.007-4.004,4.007	C28.785,21.01,26.993,19.214,26.993,17.003z M32.001,17.003c0-0.555-0.453-1.007-1.004-1.007c-0.552,0-1.004,0.452-1.004,1.007	c0,0.556,0.452,1.007,1.004,1.007C31.547,18.01,32.001,17.559,32.001,17.003z"
        clip-rule="evenodd" />
    <path fill="#18193f" fill-rule="evenodd"
        d="M18.827,35.982l-6-3	c-0.927-0.464-1.115-1.711-0.364-2.427L25.29,18.313c0.373-0.357,1.119-0.977,1.967-1.213c0.589-0.165,1.509-0.212,2.252,0.531	c0.647,0.647,1.491,1.52,1.491,3.009c0,3.384-1.435,4.713-3.319,6.597c-2.24,2.239-4.156,2.887-6.224,4.639l-0.457,0.421v2.343	C20.999,35.753,19.823,36.479,18.827,35.982z M17.999,32.214v-0.575c0-0.397,0.157-0.779,0.439-1.06	c2.667-2.667,4.889-3.233,7.121-5.464c0.995-0.995,1.555-1.555,1.921-2.167c0.315-0.527,0.519-1.157,0.519-2.309	c0-0.099,0.004-0.177-0.145-0.373l-0.089-0.111l-0.187,0.137c-0.071,0.057-0.144,0.121-0.215,0.189L16.078,31.253L17.999,32.214z"
        clip-rule="evenodd" />
    <path fill="#18193f" fill-rule="evenodd"
        d="M15.438,21.438l3-3	c0.823-0.823,1.584-1.483,2.487-1.903c0.935-0.435,1.88-0.552,2.964-0.552c0.623,0,1.437,0.091,2.229,0.301	c0.757,0.201,1.7,0.567,2.387,1.253c0.585,0.585,0.585,1.536,0,2.121c-0.585,0.585-1.536,0.585-2.121,0	c-0.132-0.132-0.468-0.324-1.037-0.476c-0.531-0.141-1.085-0.2-1.457-0.2c-0.868,0-1.321,0.097-1.697,0.272	c-0.407,0.189-0.865,0.537-1.632,1.304l-0.439,0.439h2.379c0.827,0,1.5,0.673,1.5,1.5c0,0.828-0.673,1.5-1.5,1.5h-6	C15.166,23.998,14.497,22.381,15.438,21.438z"
        clip-rule="evenodd" />
</svg>