<svg xmlns="http://www.w3.org/2000/svg"  viewBox="0 0 48 48" width="420px" height="420px"><circle cx="28" cy="28" r="18" fill="#ffe082"/><path fill="none" stroke="#18193f" stroke-linecap="round" stroke-linejoin="round" stroke-miterlimit="10" stroke-width="3" d="M8.517,34.13C6.609,31.22,5.5,27.739,5.5,24C5.5,13.783,13.783,5.5,24,5.5c1.789,0,3.518,0.254,5.154,0.727"/><path fill="none" stroke="#18193f" stroke-linecap="round" stroke-linejoin="round" stroke-miterlimit="10" stroke-width="3" d="M39.557,13.984C41.419,16.871,42.5,20.309,42.5,24c0,10.217-8.283,18.5-18.5,18.5c-2.937,0-5.714-0.684-8.181-1.902"/><path fill="none" stroke="#18193f" stroke-linecap="round" stroke-linejoin="round" stroke-miterlimit="10" stroke-width="3" d="M20.556,18.805l-4.111,3.083c-0.192,0.144-0.269,0.393-0.194,0.621c0.077,0.226,0.289,0.379,0.528,0.379h5.325l-6.829,6.829	c-0.159,0.159-0.207,0.398-0.12,0.606c0.087,0.208,0.288,0.343,0.512,0.343H19L9.667,43.11c-0.164,0.221-0.143,0.531,0.052,0.726	c0.107,0.108,0.249,0.163,0.392,0.163c0.117,0,0.234-0.037,0.333-0.111l15.113-11.335"/><path fill="none" stroke="#18193f" stroke-linecap="round" stroke-linejoin="round" stroke-miterlimit="10" stroke-width="3" d="M29.705,29.443l2.962-2.221c0.192-0.144,0.269-0.393,0.194-0.621c-0.077-0.226-0.289-0.379-0.528-0.379h-5.325l6.829-6.829	c0.159-0.159,0.207-0.398,0.12-0.606c-0.087-0.208-0.288-0.343-0.512-0.343h-4.37L39.425,6.023c0.182-0.217,0.171-0.533-0.023-0.739	c-0.109-0.113-0.256-0.171-0.402-0.171c-0.117,0-0.234,0.037-0.333,0.11l-18.11,13.582"/></svg>