<svg xmlns="http://www.w3.org/2000/svg"  viewBox="0 0 48 48" width="420px" height="420px"><circle cx="39.3" cy="14.7" r="4.6" fill="#90caf9"/><circle cx="25.4" cy="15.2" r="4.1" fill="#90caf9"/><circle cx="14.2" cy="16.2" r="3.1" fill="#90caf9"/><path fill="#90caf9" d="M19.1,28.9c-0.6-2.3-2.8-4-5.4-3.8C11,25.3,9,27.7,9,30.4l0,7.3c0,1.1,0.9,2,2,2h7.2"/><path fill="#90caf9" d="M32.4,29.9c-1.2-3.3-4.7-5.5-8.5-4.7c-3.5,0.7-5.8,3.9-5.8,7.5l0,8.2c0,1.2,0.9,2.1,2.1,2.1H32"/><path fill="#90caf9" d="M47,33.2l0,10.7c0,1.2-0.9,2.1-2.1,2.1H33.1c-1.2,0-2.1-0.9-2.1-2.1v-11c0-5,4.6-8.8,9.9-7.7	C44.5,26,47,29.4,47,33.2z"/><circle cx="35" cy="11" r="4.5" fill="none" stroke="#18193f" stroke-width="3"/><circle cx="21.5" cy="11.5" r="4" fill="none" stroke="#18193f" stroke-width="3"/><circle cx="10.5" cy="12.5" r="3" fill="none" stroke="#18193f" stroke-width="3"/><path fill="none" stroke="#18193f" stroke-linecap="round" stroke-linejoin="round" stroke-width="3" d="M5.5,27l0,6.5c0,1.1,0.9,2,2,2h1.9"/><path fill="none" stroke="#18193f" stroke-linecap="round" stroke-linejoin="round" stroke-width="3" d="M11.5,21.6c-0.4-0.1-0.9-0.1-1.4-0.1c-2.6,0.2-4.6,2.5-4.6,5.2"/><path fill="none" stroke="#18193f" stroke-linecap="round" stroke-linejoin="round" stroke-width="3" d="M24.1,22c-1.1-0.4-2.2-0.6-3.5-0.5c-3.6,0.4-6.1,3.6-6.1,7.2l0,7.8c0,1.1,0.9,2,2,2h5.4"/><path fill="none" stroke="#18193f" stroke-linecap="round" stroke-linejoin="round" stroke-width="3" d="M42.5,29.3v10.2c0,1.1-0.9,2-2,2h-11c-1.1,0-2-0.9-2-2v-4"/><path fill="none" stroke="#18193f" stroke-linecap="round" stroke-linejoin="round" stroke-width="3" d="M27.5,30.8V29c0-4.2,3.5-7.6,7.7-7.5c1.9,0.1,3.7,0.9,5,2.2"/></svg>