<svg xmlns="http://www.w3.org/2000/svg"  viewBox="0 0 48 48" width="420px" height="420px"><path fill="#f48fb1" d="M21,46h15c5.5,0,10-4.5,10-10V21c0-5.5-4.5-10-10-10H21c-5.5,0-10,4.5-10,10v15C11,41.5,15.5,46,21,46z"/><path fill="none" stroke="#18193f" stroke-linecap="round" stroke-linejoin="round" stroke-miterlimit="10" stroke-width="3" d="M41.5,21.1v-4.6c0-5.5-4.5-10-10-10h-15c-5.5,0-10,4.5-10,10v3"/><path fill="none" stroke="#18193f" stroke-linecap="round" stroke-linejoin="round" stroke-miterlimit="10" stroke-width="3" d="M6.5,25.6v5.9c0,5.5,4.5,10,10,10h15c5.5,0,10-4.5,10-10v-4.6"/><path fill="none" stroke="#18193f" stroke-miterlimit="10" stroke-width="3" d="M24,15.5c-4.7,0-8.5,3.8-8.5,8.5s3.8,8.5,8.5,8.5s8.5-3.8,8.5-8.5S28.7,15.5,24,15.5z"/><path fill="#18193f" d="M34,12c-1.1,0-2,0.9-2,2s0.9,2,2,2s2-0.9,2-2S35.1,12,34,12z"/></svg>