<svg xmlns="http://www.w3.org/2000/svg"  viewBox="0 0 48 48" width="420px" height="420px"><path fill="#8ce7f2" d="M28.11,45.808c-4.611,0-8.012-1.698-8.945-2.219c-6.252-3.487-11.361-11.977-8.512-20.84	C13.141,15.004,19.952,10,28.004,10c1.167,0,2.34,0.111,3.483,0.33c9.383,1.795,12.733,9.399,13.536,11.686	c0.454,1.293,1.689,5.754-1.455,8.902c-1.808,1.809-3.715,2.095-5.346,2.1c-0.948,0.003-1.893-0.113-2.815-0.333	c-0.704-0.168-1.366-0.362-1.99-0.651c-0.497-0.23-0.702-0.85-0.435-1.329c0.221-0.398,0.414-0.806,0.54-1.273	c0.315-1.221,0.715-4.291-2.347-6.421c-1.021-0.709-2.202-1.085-3.417-1.085c-1.986,0-3.914,1.012-4.912,2.578	c-1.462,2.294-1.2,4.841-0.465,6.46c2.712,5.983,7.875,7.535,9.572,8.046c1.207,0.363,2.734,0.563,4.296,0.563	c1.086,0,2.133-0.119,3.157-0.342c0.957-0.208,1.606,0.964,0.894,1.637c-0.725,0.685-1.5,1.316-2.309,1.879	c-1.458,1.015-3.066,1.81-4.767,2.326c-1.402,0.425-2.858,0.659-4.321,0.719C28.637,45.803,28.374,45.808,28.11,45.808z"/><path fill="none" stroke="#18193f" stroke-linecap="round" stroke-linejoin="round" stroke-miterlimit="10" stroke-width="3" d="M41.944,19.26c0.422,1.998,0.583,5.27-1.894,7.75c-1.863,1.864-3.828,2.159-5.509,2.164c-0.977,0.003-1.951-0.116-2.901-0.343 c-0.725-0.173-1.408-0.373-2.05-0.67c-0.512-0.237-0.723-0.876-0.448-1.37c0.228-0.41,0.426-0.831,0.556-1.312 c0.324-1.258,0.736-4.422-2.419-6.617c-1.052-0.731-2.27-1.118-3.522-1.118c-2.046,0-4.033,1.043-5.062,2.656 c-1.507,2.364-1.236,4.989-0.479,6.657c2.795,6.165,8.115,7.765,9.864,8.291c1.244,0.374,2.817,0.58,4.427,0.58 c1.119,0,2.198-0.123,3.253-0.352c0.987-0.215,1.655,0.993,0.921,1.687c-0.747,0.706-1.545,1.356-2.379,1.936 c-1.502,1.046-3.16,1.865-4.913,2.397c-1.445,0.438-2.945,0.679-4.453,0.741c-0.272,0.011-0.543,0.017-0.815,0.017 c-4.752,0-8.257-1.749-9.218-2.286c-2.979-1.662-5.706-4.425-7.487-7.819"/><path fill="none" stroke="#18193f" stroke-linecap="round" stroke-linejoin="round" stroke-miterlimit="10" stroke-width="3" d="M5.409,25.81c-0.264-2.315-0.069-4.753,0.723-7.218c2.564-7.982,9.582-13.138,17.88-13.138c1.203,0,2.411,0.114,3.589,0.34 c4.824,0.923,8.1,3.335,10.275,5.814"/><path fill="none" stroke="#18193f" stroke-linecap="round" stroke-linejoin="round" stroke-miterlimit="10" stroke-width="3" d="M27.017,42.112c-7.12,0.555-13.221-5.872-12.901-12.923"/><path fill="none" stroke="#18193f" stroke-linecap="round" stroke-linejoin="round" stroke-miterlimit="10" stroke-width="3" d="M29.424,21.377C26.853,13.881,11.34,7.621,5.336,22.2"/></svg>