<svg xmlns="http://www.w3.org/2000/svg"  viewBox="0 0 48 48" width="420px" height="420px"><circle cx="28" cy="28" r="17" fill="#a5d6a7"/><path fill="none" stroke="#18193f" stroke-linecap="round" stroke-linejoin="round" stroke-width="3" d="M39.982,14.675	C36.773,9.186,30.817,5.499,24,5.499c-10.217,0-18.5,8.283-18.5,18.5c0,0.7,0.039,1.39,0.115,2.07"/><path fill="none" stroke="#18193f" stroke-linecap="round" stroke-linejoin="round" stroke-width="3" d="M7.84,32.993l-2.301,8.238	c-0.21,0.75,0.481,1.442,1.232,1.232l8.242-2.3c2.662,1.483,5.724,2.336,8.987,2.336c10.217,0,18.5-8.283,18.5-18.5	c0-0.427-0.014-0.85-0.043-1.269"/><path fill="#18193f" d="M33.357,30.651c-0.398,1.116-2.348,2.191-3.224,2.269c-0.876,0.08-1.697,0.396-5.731-1.194	c-4.855-1.914-7.92-6.891-8.158-7.208c-0.239-0.32-1.95-2.589-1.95-4.939s1.234-3.506,1.672-3.982	C16.405,15.119,16.922,15,17.241,15c0.318,0,0.637,0,0.915,0.011c0.341,0.013,0.718,0.031,1.075,0.825	c0.425,0.945,1.353,3.307,1.472,3.546s0.199,0.519,0.04,0.836c-0.159,0.318-0.239,0.517-0.476,0.796	c-0.239,0.279-0.501,0.622-0.716,0.836c-0.239,0.237-0.488,0.498-0.21,0.974c0.279,0.478,1.236,2.042,2.656,3.307	c1.826,1.627,3.362,2.13,3.841,2.371c0.478,0.239,0.756,0.199,1.035-0.121c0.279-0.318,1.194-1.393,1.512-1.871	s0.637-0.398,1.075-0.239c0.438,0.159,2.786,1.315,3.263,1.554c0.478,0.239,0.796,0.358,0.915,0.557	C33.755,28.579,33.755,29.535,33.357,30.651z"/></svg>