<svg xmlns="http://www.w3.org/2000/svg"  viewBox="0 0 48 48" width="420px" height="420px"><path fill="#8ce7f2" d="M41.631,12.733L41.631,12.733c-1.237,0-2.727,0.399-4.98,1.333l-0.27,0.112 c-9.619,3.994-18.342,7.701-24.559,10.436c-0.971,0.428-3.926,1.728-3.812,4.447c0.049,1.173,0.695,2.772,3.488,3.73l0.206,0.071 c0.78,0.269,2.403,0.829,4.068,1.307c1.013,0.291,1.928,0.432,2.796,0.432c1.505,0,2.671-0.43,3.583-0.93 c-0.005,0.152-0.001,0.305,0.011,0.459c0.165,2.091,1.782,3.238,2.748,3.924l0.135,0.096c1.426,1.02,7.882,5.285,8.613,5.767 c1.376,0.908,2.618,1.349,3.798,1.349c1.856,0,4.254-0.991,5.131-5.715c0.833-4.48,1.795-10.738,2.498-15.308 c0.299-1.95,0.545-3.549,0.702-4.487c0.316-1.894,0.46-4.04-0.857-5.594C44.374,13.51,43.354,12.733,41.631,12.733L41.631,12.733z"/><path fill="#18193f" d="M42.82,8.595c-0.612-0.72-1.74-1.579-3.645-1.579c-1.368,0-3.015,0.441-5.506,1.474L33.37,8.614 c-3.805,1.58-7.48,3.118-10.949,4.582c-0.556,0.235-0.91,0.776-0.91,1.38v0c0,1.073,1.098,1.798,2.087,1.381 c5.659-2.388,10.172-4.259,11.22-4.694c1.928-0.801,3.36-1.246,4.357-1.246c1.687,0,2.131,1.276,1.632,4.272 c-0.309,1.852-0.932,6.02-1.646,10.573c-0.143,0.91,0.56,1.735,1.482,1.735h0.001c0.738,0,1.368-0.538,1.482-1.268 c0.31-1.976,0.605-3.888,0.866-5.587c0.331-2.156,0.603-3.924,0.776-4.961C44.117,12.686,44.277,10.314,42.82,8.595z"/><path fill="#18193f" d="M39.546,30.383c-0.732,0-1.358,0.528-1.479,1.25c-0.268,1.596-0.534,3.121-0.788,4.485 c-0.502,2.702-1.407,3.867-2.724,3.867c-0.724,0-1.572-0.352-2.546-0.995c-1.32-0.872-7.984-5.279-9.431-6.314 c-1.32-0.943-3.141-2.078-0.857-4.312c0.813-0.796,6.14-5.883,10.29-9.842c0.443-0.423,0.072-1.068-0.42-1.068 c-0.112,0-0.231,0.034-0.347,0.111c-5.594,3.71-13.351,8.859-14.338,9.53c-0.987,0.67-1.949,1.1-3.231,1.1 c-0.655,0-1.394-0.112-2.263-0.362c-1.943-0.558-3.84-1.223-4.579-1.477c-2.845-0.976-2.17-2.241,0.593-3.457 c2.995-1.317,6.227-2.712,9.389-4.064c0.552-0.236,0.908-0.777,0.908-1.378v-0.001c0-1.076-1.105-1.801-2.095-1.378 c-3.5,1.496-6.676,2.87-9.411,4.073c-1.074,0.473-4.341,1.91-4.214,4.916c0.054,1.297,0.768,3.065,3.856,4.124l0.228,0.078 c0.862,0.297,2.657,0.916,4.497,1.445c1.12,0.322,2.132,0.478,3.091,0.478c1.664,0,2.953-0.475,3.961-1.028 c-0.005,0.168-0.001,0.337,0.012,0.507c0.182,2.312,1.97,3.58,3.038,4.338l0.149,0.106c1.577,1.128,8.714,5.843,9.522,6.376 c1.521,1.004,2.894,1.491,4.199,1.491c2.052,0,4.703-1.096,5.673-6.318c0.257-1.384,0.526-2.921,0.796-4.529 c0.154-0.915-0.551-1.753-1.479-1.753H39.546z"/></svg>