<svg xmlns="http://www.w3.org/2000/svg"  viewBox="0 0 48 48" width="420px" height="420px"><path fill="#ffe082" d="M27.015,46.507L9.493,28.986c-0.544-0.544-0.544-1.426,0-1.969L27.015,9.494	c0.544-0.544,1.426-0.544,1.969,0l17.523,17.522c0.544,0.544,0.544,1.426,0,1.969L28.985,46.507	C28.441,47.05,27.559,47.05,27.015,46.507z"/><path fill="none" stroke="#18193f" stroke-linecap="round" stroke-linejoin="round" stroke-miterlimit="10" stroke-width="3" d="M28.916,38.576l-3.931,3.932c-0.544,0.543-1.426,0.543-1.97,0L5.493,24.986c-0.544-0.544-0.544-1.426,0-1.969l9.017-9.018"/><path fill="none" stroke="#18193f" stroke-linecap="round" stroke-linejoin="round" stroke-miterlimit="10" stroke-width="3" d="M18.619,9.89l4.396-4.396c0.544-0.544,1.426-0.544,1.969,0l17.523,17.522c0.544,0.544,0.544,1.426,0,1.969l-9.378,9.379"/><circle cx="24" cy="32.73" r="2.91" fill="#18193f"/><circle cx="32.73" cy="24.001" r="2.91" fill="#18193f"/><circle cx="24" cy="15.271" r="2.91" fill="#18193f"/><line x1="24" x2="24" y1="32.73" y2="15.271" fill="none" stroke="#18193f" stroke-linecap="round" stroke-linejoin="round" stroke-miterlimit="10" stroke-width="3"/><line x1="32.73" x2="18.62" y1="24.001" y2="9.891" fill="none" stroke="#18193f" stroke-linecap="round" stroke-linejoin="round" stroke-miterlimit="10" stroke-width="3"/></svg>