<svg xmlns="http://www.w3.org/2000/svg"  viewBox="0 0 48 48" width="420px" height="420px"><path fill="#f48fb1" d="M40.1,44H15.9c-2.1,0-3.9-1.7-3.9-3.9V15.9c0-2.1,1.7-3.9,3.9-3.9h24.2c2.1,0,3.9,1.7,3.9,3.9v24.2	C44,42.3,42.3,44,40.1,44z"/><path fill="none" stroke="#18193f" stroke-linecap="round" stroke-linejoin="round" stroke-miterlimit="10" stroke-width="3" d="M40.5,30.5v6c0,2.2-1.8,4-4,4h-25c-2.2,0-4-1.8-4-4V24.3"/><path fill="none" stroke="#18193f" stroke-linecap="round" stroke-linejoin="round" stroke-miterlimit="10" stroke-width="3" d="M7.5,17.5v-6c0-2.2,1.8-4,4-4h25c2.2,0,4,1.8,4,4v12.2"/><path fill="none" stroke="#18193f" stroke-linecap="round" stroke-linejoin="round" stroke-miterlimit="10" stroke-width="3" d="M28.3,16.2c-1.8,0-3.4,1-4.3,2.5c-0.8-1.5-2.4-2.5-4.3-2.5c-2.7,0-4.9,2.2-4.9,4.9c0,6.1,7.5,10.7,9.2,10.7	s9.2-5.1,9.2-10.7C33.2,18.4,31,16.2,28.3,16.2z"/></svg>