<svg xmlns="http://www.w3.org/2000/svg"  viewBox="0 0 48 48" width="420px" height="420px"><path fill="#ffe082" d="M43,17H14c-1.7,0-3,1.3-3,3v23c0,1.7,1.3,3,3,3h29c1.7,0,3-1.3,3-3V20C46,18.3,44.7,17,43,17z"/><path fill="none" stroke="#18193f" stroke-linecap="round" stroke-linejoin="round" stroke-miterlimit="10" stroke-width="3" d="M31.5,12.5h7c1.7,0,3,1.3,3,3v23c0,1.7-1.3,3-3,3h-29c-1.7,0-3-1.3-3-3v-6.8"/><path fill="none" stroke="#18193f" stroke-linecap="round" stroke-linejoin="round" stroke-miterlimit="10" stroke-width="3" d="M6.5,21.9v-6.4c0-1.7,1.3-3,3-3h15"/><path fill="none" stroke="#18193f" stroke-linecap="round" stroke-linejoin="round" stroke-miterlimit="10" stroke-width="3" d="M16.5,12.5v-4c0-1.1,0.9-2,2-2h11c1.1,0,2,0.9,2,2v4"/><path fill="none" stroke="#18193f" stroke-linecap="round" stroke-linejoin="round" stroke-miterlimit="10" stroke-width="3" d="M21,27.5h-8.9c-3.1,0-5.6-2.5-5.6-5.6v-5.2"/><line x1="30.8" x2="27" y1="27.5" y2="27.5" fill="none" stroke="#18193f" stroke-linecap="round" stroke-linejoin="round" stroke-miterlimit="10" stroke-width="3"/><path fill="none" stroke="#18193f" stroke-linecap="round" stroke-linejoin="round" stroke-miterlimit="10" stroke-width="3" d="M41.5,19.7v2.3c0,3.1-2.5,5.6-5.6,5.6h-5.2"/><rect width="6" height="6" x="21" y="24.5" fill="none" stroke="#18193f" stroke-linecap="round" stroke-linejoin="round" stroke-miterlimit="10" stroke-width="3"/></svg>