<svg xmlns="http://www.w3.org/2000/svg"  viewBox="0 0 48 48" width="420px" height="420px"><path fill="#a5d6a7" d="M46.7,18.5l-4.4-4.4c-0.8-0.8-2-0.8-2.8,0L24,29.6l-5.3-5.3c-0.8-0.8-2-0.8-2.8,0l-4.4,4.4	c-0.8,0.8-0.8,2,0,2.8l11.1,11.1c0.8,0.8,2,0.8,2.8,0l21.3-21.3C47.4,20.6,47.4,19.3,46.7,18.5z"/><path fill="none" stroke="#18193f" stroke-linecap="round" stroke-linejoin="round" stroke-miterlimit="10" stroke-width="3" d="M14.6,34.6l4,4c0.8,0.8,2,0.8,2.8,0l21.3-21.3c0.8-0.8,0.8-2,0-2.8l-4.4-4.4c-0.8-0.8-2-0.8-2.8,0L32,13.6"/><path fill="none" stroke="#18193f" stroke-linecap="round" stroke-linejoin="round" stroke-miterlimit="10" stroke-width="3" d="M28,17.6l-8,8l-5.3-5.3c-0.8-0.8-2-0.8-2.8,0l-4.4,4.4c-0.8,0.8-0.8,2,0,2.8l3.3,3.3"/></svg>