<svg xmlns="http://www.w3.org/2000/svg"  viewBox="0 0 48 48" width="420px" height="420px"><path fill="#ffe082" d="M45.1,24.5H42v-3.9c0-1.6-1.3-2.9-2.9-2.9H24.4l-4.8-4c-0.7-0.6-1.6-0.9-2.5-0.9h-6.4c-1.6,0-2.9,1.3-2.9,2.9	v24.4c0,0.2,0,0.3,0,0.5c-0.2,1.2,0.7,2.4,2,2.4H39c0.1,0,0.2,0,0.3,0c0,0,0,0,0,0c0.8-0.1,1.4-0.5,1.9-1.1c0,0,0.1-0.1,0.1-0.1	c0,0,0.1-0.1,0.1-0.1c0.1-0.2,0.3-0.4,0.4-0.7L47,27.3C47.6,25.9,46.6,24.5,45.1,24.5z"/><path fill="none" stroke="#18193f" stroke-linecap="round" stroke-linejoin="round" stroke-width="3" d="M3.5,18.7v5.6v12.2c0,1.7,1.3,3,3,3h29"/><path fill="none" stroke="#18193f" stroke-linecap="round" stroke-linejoin="round" stroke-width="3" d="M38.5,16.5c0-1.7-1.3-3-3-3h-15l-4.9-4.1c-0.7-0.6-1.6-0.9-2.6-0.9H6.5c-1.7,0-3,1.3-3,3V13"/><path fill="none" stroke="#18193f" stroke-linecap="round" stroke-linejoin="round" stroke-miterlimit="10" stroke-width="3" d="M14.4,39.5h20.9c1.3,0,2.5-0.8,3-2.1l5.3-13.1c0.5-1.4-0.5-2.9-2-2.9H14.9c-1.3,0-2.5,0.8-3,2.1l-0.7,2"/></svg>