<svg xmlns="http://www.w3.org/2000/svg"  viewBox="0 0 48 48" width="420px" height="420px"><path fill="#f48fb1" d="M42.5,13.2L27.4,7.1c-0.3-0.2-0.6-0.4-1-0.4c-0.8,0-1.5,0.7-1.5,1.5l-0.2,25.4c-1.6-1.2-1.5-1.2-3.9-1.2	c-5.1,0-9.3,3.2-9.3,7.1s4.1,7.1,9.3,7.1c4.6,0,8.4-2.5,9.1-5.9c0.1-0.2,0.1-21.9,0.1-21.9l14.6,5.5c0.7,0.2,1.4-0.2,1.4-0.9v-5	C46,16.1,44.6,14,42.5,13.2z"/><path fill="none" stroke="#18193f" stroke-linecap="round" stroke-miterlimit="10" stroke-width="3" d="M24.5,36c0,3.6-3.8,6.5-8.5,6.5S7.5,39.6,7.5,36s3.8-6.5,8.5-6.5c0.6,0,1.3,0.1,1.9,0.2"/><path fill="none" stroke="#18193f" stroke-linecap="round" stroke-linejoin="round" stroke-miterlimit="10" stroke-width="3" d="M24.5,36V5.5l12.8,4.8c2,0.7,3.2,2.6,3.2,4.7v6.5L31,17.9"/></svg>