<svg xmlns="http://www.w3.org/2000/svg"  viewBox="0 0 48 48" width="420px" height="420px"><path fill="#a5d6a7" d="M40.121,45H15.879C13.737,45,12,43.263,12,41.121V16.879C12,14.737,13.737,13,15.879,13h24.242	C42.263,13,44,14.737,44,16.879v24.242C44,43.263,42.263,45,40.121,45z"/><path fill="none" stroke="#18193f" stroke-linecap="round" stroke-linejoin="round" stroke-width="3" d="M40.5,27.596V37.5	c0,2.209-1.791,4-4,4h-25c-2.209,0-4-1.791-4-4v-25c0-2.209,1.791-4,4-4h10.862"/><path fill="none" stroke="#18193f" stroke-linecap="round" stroke-width="3" d="M42.827,9.27C41.589,6.461,38.774,4.5,35.5,4.5	c-4.418,0-8,3.571-8,7.976c0,5.434,5.45,7.386,7.466,15.108c0.139,0.531,0.092,0.916,0.534,0.916s0.395-0.386,0.534-0.916	c1.337-5.123,4.186-7.706,5.952-10.451"/><path fill="#18193f" d="M35.5,10c-1.381,0-2.5,1.119-2.5,2.5s1.119,2.5,2.5,2.5s2.5-1.119,2.5-2.5S36.881,10,35.5,10z"/><line x1="13.899" x2="29.633" y1="35.101" y2="19.367" fill="none" stroke="#18193f" stroke-linecap="round" stroke-linejoin="round" stroke-width="3"/><line x1="39.027" x2="24" y1="40.027" y2="25" fill="none" stroke="#18193f" stroke-linecap="round" stroke-linejoin="round" stroke-width="3"/><path fill="none" stroke="#18193f" stroke-linecap="round" stroke-linejoin="round" stroke-width="2" d="M17.015,18h3.971	c-0.256,2.242-2.16,4-4.471,4c-2.485,0-4.5-2.015-4.5-4.5s2.015-4.5,4.5-4.5c1.073,0,2.059,0.376,2.832,1.003"/></svg>