<svg xmlns="http://www.w3.org/2000/svg"  viewBox="0 0 100 100" width="500px" height="500px"><path d="M90.928,40.601L86.52,12.01c-0.264-1.715-1.181-3.225-2.584-4.255C82.813,6.934,81.486,6.5,80.096,6.5 c-0.332,0-0.667,0.026-0.992,0.076l-6.13,0.945c-2.957,0.457-5.144,2.85-5.467,5.688c-1.215-1.313-2.939-2.087-4.773-2.087 c-1.109,0-2.208,0.287-3.171,0.827l-5.411,3.025c-1.516,0.847-2.611,2.233-3.085,3.904c-0.473,1.672-0.267,3.428,0.581,4.942 l2.442,4.369l-4.12-2.86c-1.092-0.757-2.374-1.158-3.706-1.158c-0.38,0-0.762,0.034-1.154,0.103 c-1.707,0.309-3.192,1.263-4.184,2.69l-3.537,5.096c-1.313,1.893-1.479,4.247-0.646,6.23c-0.236,0.079-0.466,0.172-0.689,0.278 c-1.57,0.739-2.758,2.045-3.348,3.68l-2.099,5.836c-0.514,1.428-0.489,2.92-0.04,4.258C29.918,52.124,29.224,52,28.5,52h-7 c-3.584,0-6.5,2.916-6.5,6.5v30c0,3.584,2.916,6.5,6.5,6.5h56c3.584,0,6.5-2.916,6.5-6.5v-30c0-3.584-2.916-6.5-6.5-6.5h-2.911 l0.472-0.681l4.189-2.342c0.039-0.005,6.243-0.962,6.243-0.962c1.717-0.264,3.228-1.181,4.254-2.582 C90.774,44.033,91.193,42.316,90.928,40.601z" opacity=".35"/><path fill="#f2f2f2" d="M88.928,38.601L84.52,10.01c-0.264-1.715-1.181-3.225-2.584-4.255 C80.813,4.934,79.486,4.5,78.096,4.5c-0.332,0-0.667,0.026-0.992,0.076l-6.13,0.945c-2.957,0.457-5.144,2.85-5.467,5.688 c-1.215-1.313-2.939-2.087-4.773-2.087c-1.109,0-2.208,0.287-3.171,0.827l-5.411,3.025c-1.516,0.847-2.611,2.233-3.085,3.904 c-0.473,1.672-0.267,3.428,0.581,4.942l2.442,4.369l-4.12-2.86c-1.092-0.757-2.374-1.158-3.706-1.158 c-0.38,0-0.762,0.034-1.154,0.103c-1.707,0.309-3.192,1.263-4.184,2.69l-3.537,5.096c-1.313,1.893-1.479,4.247-0.646,6.23 c-0.236,0.079-0.466,0.172-0.689,0.278c-1.57,0.739-2.758,2.045-3.348,3.68l-2.099,5.836c-0.514,1.428-0.489,2.92-0.04,4.258 C27.918,50.124,27.224,50,26.5,50h-7c-3.584,0-6.5,2.916-6.5,6.5v30c0,3.584,2.916,6.5,6.5,6.5h56c3.584,0,6.5-2.916,6.5-6.5v-30 c0-3.584-2.916-6.5-6.5-6.5h-2.911l0.472-0.681l4.189-2.342c0.039-0.005,6.243-0.962,6.243-0.962 c1.717-0.264,3.228-1.181,4.254-2.582C88.774,42.033,89.193,40.316,88.928,38.601z"/><polygon fill="#707cc0" points="68.5,56.5 68.5,79.5 26.5,79.5 26.5,56.5 19.5,56.5 19.5,86.5 75.5,86.5 75.5,56.5"/><path fill="#40396e" d="M75.5,88h-56c-0.829,0-1.5-0.671-1.5-1.5v-30c0-0.829,0.671-1.5,1.5-1.5h7 c0.829,0,1.5,0.671,1.5,1.5V78h39V56.5c0-0.829,0.671-1.5,1.5-1.5h7c0.829,0,1.5,0.671,1.5,1.5v30C77,87.329,76.329,88,75.5,88z M21,85h53V58h-4v21.5c0,0.829-0.671,1.5-1.5,1.5h-42c-0.829,0-1.5-0.671-1.5-1.5V58h-4V85z"/><rect width="29" height="6" x="32.5" y="68.5" fill="#707cc0"/><path fill="#40396e" d="M61.5,76h-29c-0.829,0-1.5-0.671-1.5-1.5v-6c0-0.829,0.671-1.5,1.5-1.5h29 c0.829,0,1.5,0.671,1.5,1.5v6C63,75.329,62.329,76,61.5,76z M34,73h26v-3H34V73z"/><path fill="#f9b84f" d="M33.066,57.001l28.765,3.095l-0.663,6.164l-28.765-3.095L33.066,57.001z"/><path fill="#40396e" d="M61.17,67.76c-0.054,0-0.108-0.003-0.163-0.009l-28.765-3.096c-0.824-0.088-1.419-0.828-1.331-1.652 l0.663-6.164c0.042-0.396,0.24-0.758,0.55-1.007c0.309-0.25,0.706-0.365,1.102-0.323l28.766,3.096 c0.396,0.042,0.758,0.24,1.007,0.55c0.25,0.31,0.366,0.706,0.323,1.102l-0.664,6.164C62.577,67.19,61.926,67.76,61.17,67.76z M34.055,61.833l25.782,2.775l0.343-3.181l-25.783-2.775L34.055,61.833z"/><path fill="#e66f2e" d="M78.095,11l4.409,28.591l-6.129,0.945l-4.409-28.591L78.095,11z"/><path fill="#40396e" d="M76.375,42.037c-0.317,0-0.628-0.101-0.887-0.29c-0.321-0.235-0.535-0.588-0.596-0.981 l-4.409-28.591c-0.126-0.819,0.435-1.584,1.254-1.711l6.129-0.945c0.393-0.061,0.794,0.038,1.115,0.272 c0.321,0.235,0.535,0.588,0.596,0.981l4.409,28.591c0.126,0.819-0.435,1.585-1.254,1.711l-6.129,0.945 C76.527,42.031,76.451,42.037,76.375,42.037z M73.677,13.199l3.952,25.626l3.165-0.488l-3.952-25.626L73.677,13.199z"/><g><path fill="#ef8630" d="M60.736,15.622l14.117,25.249l-5.413,3.026L55.322,18.649L60.736,15.622z"/><path fill="#40396e" d="M69.441,45.398c-0.526,0-1.036-0.277-1.311-0.769L54.013,19.381 c-0.194-0.347-0.243-0.757-0.134-1.14s0.364-0.707,0.711-0.901l5.413-3.026c0.723-0.405,1.638-0.146,2.041,0.577l14.117,25.249 c0.194,0.347,0.243,0.757,0.134,1.14s-0.364,0.707-0.711,0.901l-5.413,3.026C69.94,45.336,69.688,45.398,69.441,45.398z M57.364,19.226l12.653,22.63l2.794-1.562l-12.653-22.63L57.364,19.226z"/></g><g><path fill="#f9b84f" d="M44.268,28.671l23.764,16.495l-3.536,5.095L40.731,33.766L44.268,28.671z"/><path fill="#40396e" d="M64.495,51.761c-0.304,0-0.603-0.092-0.855-0.268L39.876,34.999 c-0.68-0.473-0.849-1.407-0.377-2.088l3.536-5.095c0.227-0.327,0.574-0.55,0.966-0.621c0.392-0.069,0.795,0.018,1.122,0.244 l23.764,16.495c0.68,0.473,0.849,1.407,0.377,2.088l-3.536,5.095c-0.227,0.327-0.574,0.55-0.966,0.621 C64.673,51.753,64.584,51.761,64.495,51.761z M42.819,33.389l21.299,14.784l1.826-2.63L44.645,30.759L42.819,33.389z"/></g><g><path fill="#ffc571" d="M36.824,42.449l27.222,9.792l-2.099,5.836l-27.222-9.792L36.824,42.449z"/><path fill="#40396e" d="M61.947,59.577c-0.171,0-0.343-0.029-0.508-0.088l-27.222-9.792 c-0.779-0.281-1.184-1.14-0.904-1.919l2.099-5.835c0.135-0.374,0.413-0.68,0.772-0.849c0.359-0.17,0.772-0.19,1.147-0.055 l27.222,9.792c0.779,0.281,1.184,1.14,0.904,1.919l-2.099,5.835c-0.135,0.374-0.413,0.68-0.772,0.849 C62.384,59.529,62.166,59.577,61.947,59.577z M36.644,47.38l24.399,8.777l1.084-3.012l-24.399-8.777L36.644,47.38z"/></g></svg>