<svg xmlns="http://www.w3.org/2000/svg"  viewBox="0 0 48 48" width="420px" height="420px"><path fill="#ffab91" d="M27.713,45.497l-14.406-2.881C11.965,42.348,11,41.17,11,39.802V16.196	c0-1.368,0.965-2.545,2.306-2.813l14.405-2.881C28.896,10.266,30,11.171,30,12.378v31.244C30,44.828,28.896,45.734,27.713,45.497z"/><path fill="none" stroke="#18193f" stroke-linecap="round" stroke-linejoin="round" stroke-miterlimit="10" stroke-width="3" d="M33,9.5h5.5c2.209,0,4,1.791,4,4v22c0,2.209-1.791,4-4,4h-11"/><path fill="none" stroke="#18193f" stroke-linecap="round" stroke-linejoin="round" stroke-miterlimit="10" stroke-width="3" d="M6.5,27.468V11.559c0-1.43,1.009-2.661,2.412-2.942l15.196-3.039c1.237-0.247,2.392,0.7,2.392,1.962v32.92	c0,1.262-1.155,2.209-2.392,1.961L8.912,39.382C7.509,39.102,6.5,37.871,6.5,36.441v-2.654"/><line x1="27.5" x2="36.5" y1="32.5" y2="32.5" fill="none" stroke="#18193f" stroke-linecap="round" stroke-linejoin="round" stroke-miterlimit="10" stroke-width="3"/><path fill="none" stroke="#18193f" stroke-linecap="round" stroke-linejoin="round" stroke-miterlimit="10" stroke-width="3" d="M13.5,30.5v-12H17c1.933,0,3.5,1.567,3.5,3.5l0,0c0,1.933-1.567,3.5-3.5,3.5h-3.5"/><path fill="#18193f" d="M31,22h5c0,2.743-2.257,5-5,5s-5-2.257-5-5s2.257-5,5-5V22z"/><path fill="#18193f" d="M33,20v-5c1.326,0,2.598,0.527,3.536,1.464S38,18.674,38,20H33z"/></svg>