<svg xmlns="http://www.w3.org/2000/svg"  viewBox="0 0 48 48" width="420px" height="420px"><path fill="#8ce7f2" d="M38.182,44H17.818C14.605,44,12,41.395,12,38.182V17.818C12,14.605,14.605,12,17.818,12h20.364	C41.395,12,44,14.605,44,17.818v20.364C44,41.395,41.395,44,38.182,44z"/><path fill="none" stroke="#18193f" stroke-linecap="round" stroke-linejoin="round" stroke-miterlimit="10" stroke-width="3" d="M27.532,40.5H13.5c-3.314,0-6-2.686-6-6V21.809"/><path fill="none" stroke="#18193f" stroke-linecap="round" stroke-linejoin="round" stroke-miterlimit="10" stroke-width="3" d="M7.5,16.064V13.5c0-3.314,2.686-6,6-6h21c3.314,0,6,2.686,6,6v21c0,3.314-2.686,6-6,6"/><path fill="none" stroke="#18193f" stroke-linecap="round" stroke-linejoin="round" stroke-miterlimit="10" stroke-width="3" d="M23.383,31.516H13.5c-0.552,0-1-0.448-1-1V17.484c0-0.552,0.448-1,1-1h21c0.552,0,1,0.448,1,1v13.032c0,0.552-0.448,1-1,1h-4.862	H23.383z"/><path fill="none" stroke="#18193f" stroke-linecap="round" stroke-linejoin="round" stroke-miterlimit="10" stroke-width="3" d="M34.856,17.319l-9.022,7.347c-1.073,0.874-2.613,0.873-3.685-0.001l-4.381-3.573"/><line x1="19.824" x2="13.144" y1="24" y2="30.681" fill="none" stroke="#18193f" stroke-miterlimit="10" stroke-width="3"/><line x1="34.856" x2="28.166" y1="30.681" y2="24" fill="none" stroke="#18193f" stroke-miterlimit="10" stroke-width="3"/></svg>