<svg xmlns="http://www.w3.org/2000/svg"  viewBox="0 0 48 48" width="420px" height="420px"><path fill="#8ce7f2" d="M38,40h5.6c0.3,0,0.5-0.1,0.7-0.3C51.5,33.1,47,25,40.5,25H39l0-5c0-0.4-0.1-0.8-0.4-1	C29.4,9.1,18,15.5,18,24.5V25h-4.7c-0.3,0-0.5,0.1-0.7,0.3C5.5,31.9,10,40,16.5,40h2.1H38z"/><polyline fill="none" stroke="#18193f" stroke-linecap="round" stroke-linejoin="round" stroke-miterlimit="10" stroke-width="3" points="28.5,29.8 24,25.3 19.5,29.8"/><line x1="24" x2="24" y1="40.3" y2="25.3" fill="none" stroke="#18193f" stroke-linecap="round" stroke-linejoin="round" stroke-miterlimit="10" stroke-width="3"/><path fill="none" stroke="#18193f" stroke-linecap="round" stroke-linejoin="round" stroke-miterlimit="10" stroke-width="3" d="M32.4,13.8c-1.9-2.6-5-4.3-8.4-4.3c-5.8,0-10.5,4.7-10.5,10.5v0.5H12c-4.1,0-7.5,3.4-7.5,7.5s3.4,7.5,7.5,7.5	h2.1"/><path fill="none" stroke="#18193f" stroke-linecap="round" stroke-linejoin="round" stroke-miterlimit="10" stroke-width="3" d="M33.5,35.5H36c4.1,0,7.5-3.4,7.5-7.5s-3.4-7.5-7.5-7.5h-1.5"/></svg>