<svg xmlns="http://www.w3.org/2000/svg"  viewBox="0 0 48 48" width="420px" height="420px" baseProfile="basic"><path fill="#9fa8da" d="M41.5,13.5h-11v-1.96c0-1.262-1.155-2.209-2.392-1.962l-15.196,3.039	c-1.403,0.281-2.412,1.512-2.412,2.942V18.5v8v13.941c0,1.43,1.009,2.661,2.412,2.941l15.196,3.039	c1.237,0.248,2.392-0.699,2.392-1.961V43.5h11c2.209,0,4-1.791,4-4v-2v-8v-12C45.5,15.291,43.709,13.5,41.5,13.5z"/><polyline fill="none" stroke="#18193f" stroke-linecap="round" stroke-linejoin="round" stroke-miterlimit="10" stroke-width="3" points="11.5,18.5 13.5,30.5 16.5,22.5 19.5,30.5 21.5,18.5"/><path fill="none" stroke="#18193f" stroke-linecap="round" stroke-linejoin="round" stroke-miterlimit="10" stroke-width="3" d="M41.5,33.5v2c0,2.209-1.791,4-4,4h-11"/><path fill="none" stroke="#18193f" stroke-linecap="round" stroke-linejoin="round" stroke-miterlimit="10" stroke-width="3" d="M6.5,22.5v13.941c0,1.43,1.009,2.661,2.412,2.941l15.196,3.039c1.237,0.248,2.392-0.699,2.392-1.961V7.54	c0-1.262-1.155-2.209-2.392-1.962L8.912,8.617C7.509,8.898,6.5,10.129,6.5,11.559V14.5"/><path fill="none" stroke="#18193f" stroke-linecap="round" stroke-linejoin="round" stroke-miterlimit="10" stroke-width="3" d="M26.5,9.5h11c2.209,0,4,1.791,4,4v12"/><line x1="31.5" x2="35.5" y1="16.5" y2="16.5" fill="none" stroke="#18193f" stroke-linecap="round" stroke-linejoin="round" stroke-miterlimit="10" stroke-width="3"/><line x1="31.5" x2="35.5" y1="24.5" y2="24.5" fill="none" stroke="#18193f" stroke-linecap="round" stroke-linejoin="round" stroke-miterlimit="10" stroke-width="3"/><line x1="31.5" x2="35.5" y1="32.5" y2="32.5" fill="none" stroke="#18193f" stroke-linecap="round" stroke-linejoin="round" stroke-miterlimit="10" stroke-width="3"/></svg>