<svg xmlns="http://www.w3.org/2000/svg"  viewBox="0 0 48 48" width="420px" height="420px"><path fill="#a5d6a7" d="M28,9.5C17.8,9.5,9.5,17.8,9.5,28c0,3.3,0.9,6.3,2.3,9l-2.3,8.2c-0.2,0.8,0.5,1.4,1.2,1.2l8.2-2.3	c2.7,1.5,5.7,2.3,9,2.3c10.2,0,18.5-8.3,18.5-18.5C46.5,17.8,38.2,9.5,28,9.5z"/><path fill="none" stroke="#18193f" stroke-linecap="round" stroke-linejoin="round" stroke-miterlimit="10" stroke-width="3" d="M42.2,20.5C40.5,12,33,5.5,24,5.5C13.8,5.5,5.5,13.8,5.5,24c0,1,0.1,1.9,0.2,2.9"/><path fill="none" stroke="#18193f" stroke-linecap="round" stroke-linejoin="round" stroke-miterlimit="10" stroke-width="3" d="M7.8,33l-2.3,8.2C5.3,42,6,42.7,6.8,42.5l8.2-2.3c2.7,1.5,5.7,2.3,9,2.3c8.7,0,16-6,18-14.1"/></svg>