<svg xmlns="http://www.w3.org/2000/svg"  viewBox="0 0 48 48" width="420px" height="420px"><path fill="#9fa8da" d="M32.3,36h-8.6c-1.5,0-2.7-1.2-2.7-2.7V12.7c0-1.5,1.2-2.7,2.7-2.7h8.6c1.5,0,2.7,1.2,2.7,2.7v20.6	C35,34.8,33.8,36,32.3,36z"/><path fill="none" stroke="#18193f" stroke-linecap="round" stroke-linejoin="round" stroke-width="3" d="M28.5,39.5h-9c-5,0-9-4-9-9v-8"/><path fill="none" stroke="#18193f" stroke-linecap="round" stroke-linejoin="round" stroke-width="3" d="M37.5,22.5v8c0,2.6-1.1,5-2.9,6.6"/><line x1="24" x2="24" y1="45" y2="40" fill="none" stroke="#18193f" stroke-linecap="round" stroke-width="3"/><circle cx="24" cy="28" r="2" fill="#18193f"/><path fill="none" stroke="#18193f" stroke-linecap="round" stroke-linejoin="round" stroke-width="3" d="M16.5,13.9V7.5c0-1.7,1.3-3,3-3h9c1.7,0,3,1.3,3,3v23c0,1.7-1.3,3-3,3h-9c-1.7,0-3-1.3-3-3V19.9"/><line x1="31.5" x2="16.5" y1="22.5" y2="22.5" fill="none" stroke="#18193f" stroke-linecap="round" stroke-width="3"/><line x1="18" x2="30" y1="45" y2="45" fill="none" stroke="#18193f" stroke-linecap="round" stroke-linejoin="round" stroke-width="3"/></svg>