<svg xmlns="http://www.w3.org/2000/svg"  viewBox="0 0 48 48" width="420px" height="420px"><path fill="#90caf9" d="M28,45L28,45c-6.075,0-11-4.925-11-11V22c0-6.075,4.925-11,11-11h0c6.075,0,11,4.925,11,11v12	C39,40.075,34.075,45,28,45z"/><path fill="none" stroke="#18193f" stroke-linecap="round" stroke-miterlimit="10" stroke-width="3" d="M23.723,6.503	C17.5,6.65,12.5,11.741,12.5,18c0,2.202,0,15.5,0,15.5"/><path fill="none" stroke="#18193f" stroke-linecap="round" stroke-miterlimit="10" stroke-width="3" d="M31.727,9.5	c-0.95-0.864-2.043-1.573-3.24-2.084"/><path fill="none" stroke="#18193f" stroke-linecap="round" stroke-miterlimit="10" stroke-width="3" d="M16.273,38.5	c2.043,1.858,4.748,3,7.727,3c6.351,0,11.5-5.149,11.5-11.5c0-2.202,0-15.5,0-15.5"/><polyline fill="none" stroke="#18193f" stroke-linecap="round" stroke-linejoin="round" stroke-miterlimit="10" stroke-width="3" points="6.5,27.5 12.5,33.5 18.5,27.5"/><polyline fill="none" stroke="#18193f" stroke-linecap="round" stroke-linejoin="round" stroke-miterlimit="10" stroke-width="3" points="41.5,20.5 35.5,14.5 29.5,20.5"/></svg>