<svg xmlns="http://www.w3.org/2000/svg"  viewBox="0 0 48 48" width="420px" height="420px"><path fill="#ffe082" d="M40,22H17c-1.7,0-3,1.3-3,3v19c0,1.7,1.3,3,3,3h23c1.7,0,3-1.3,3-3V25C43,23.3,41.7,22,40,22z"/><path fill="none" stroke="#18193f" stroke-miterlimit="10" stroke-width="3" d="M17.5,17.5c0,0,0-1.9,0-5.5s2.9-6.5,6.5-6.5s6.5,2.9,6.5,6.5c0,2,0,5.5,0,5.5"/><circle cx="24" cy="30" r="3" fill="#18193f"/><line x1="24" x2="24" y1="30" y2="36" fill="none" stroke="#18193f" stroke-linecap="round" stroke-linejoin="round" stroke-miterlimit="10" stroke-width="3"/><path fill="none" stroke="#18193f" stroke-linecap="round" stroke-linejoin="round" stroke-miterlimit="10" stroke-width="3" d="M23.9,42.5H12.5c-1.7,0-3-1.3-3-3v-19c0-1.7,1.3-3,3-3h5"/><path fill="none" stroke="#18193f" stroke-linecap="round" stroke-linejoin="round" stroke-miterlimit="10" stroke-width="3" d="M24,17.5h11.5c1.7,0,3,1.3,3,3v19c0,1.7-1.3,3-3,3h-5"/></svg>