<svg xmlns="http://www.w3.org/2000/svg"  viewBox="0 0 48 48" width="420px" height="420px"><path fill="#9fa8da" d="M40.121,44H15.879C13.737,44,12,42.263,12,40.121V15.879C12,13.737,13.737,12,15.879,12h24.242	C42.263,12,44,13.737,44,15.879v24.242C44,42.263,42.263,44,40.121,44z"/><path fill="none" stroke="#18193f" stroke-linecap="round" stroke-linejoin="round" stroke-width="3" d="M40.5,34.128V36.5	c0,2.209-1.791,4-4,4h-25c-2.209,0-4-1.791-4-4V17.404"/><path fill="none" stroke="#18193f" stroke-linecap="round" stroke-linejoin="round" stroke-width="3" d="M7.5,11.5	c0-2.209,1.791-4,4-4h25c2.209,0,4,1.791,4,4v14.777"/><path fill="none" stroke="#18193f" stroke-linecap="round" stroke-linejoin="round" stroke-width="3" d="M21,22.5	c-3.038,0-5.5,2.462-5.5,5.5s2.462,5.5,5.5,5.5s5.5-2.462,5.5-5.5V14.5l0,0c0,3.314,2.686,6,6,6"/></svg>