<svg xmlns="http://www.w3.org/2000/svg"  viewBox="0 0 48 48" width="420px" height="420px"><path fill="#8ce7f2" d="M45.5,36.1c0.5,0.2,0.7,0.8,0.5,1.3c-0.7,1.5-1.2,2.4-2.2,4c-1.7,2.6-4.2,5.9-7.2,5.9c-2.7,0-3.4-1.7-7-1.7	c-3.6,0-4.4,1.8-7.1,1.7c-3,0-5.3-3-7-5.6c-4.8-7.4-5.3-16-2.4-20.6c2.1-3.3,5.4-5.2,8.6-5.2c3.2,0,5.2,1.8,7.8,1.8	c2.6,0,4.1-1.8,7.8-1.8c2.4,0,5,1.2,7,3.2c0.4,0.4,0.4,1.2-0.1,1.5C38.6,24.7,39.6,33.1,45.5,36.1z"/><path fill="none" stroke="#18193f" stroke-linecap="round" stroke-linejoin="round" stroke-width="3" d="M36.7,40.7C35.4,42,34,43,32.3,43c-2.6,0-3.3-1.7-6.8-1.7c-3.6,0-4.3,1.7-6.9,1.7c-2.9,0-5.2-2.9-6.9-5.5	c-3.2-4.8-4.4-10.2-4-14.5"/><path fill="none" stroke="#18193f" stroke-linecap="round" stroke-linejoin="round" stroke-width="3" d="M11.1,15.3c1.9-1.9,4.4-3,6.7-3c3.1,0,5.1,1.7,7.7,1.7c2.5,0,4-1.7,7.6-1.7c2.4,0,4.9,1.1,6.9,3.1	c0.4,0.4,0.4,1.2-0.1,1.5c-5.4,3.9-4.5,12.1,1.3,15c0.5,0.2,0.7,0.8,0.4,1.3c-0.5,1.1-0.9,1.9-1.6,3"/><path fill="none" stroke="#18193f" stroke-linecap="round" stroke-linejoin="round" stroke-width="3" d="M30.6,10c1.6-2,2.7-4.8,2.3-7.7c-2.5,0.2-5.5,1.8-7.3,3.9c-1.6,1.9-2.9,4.8-2.4,7.5C26,13.8,28.9,12.1,30.6,10	z"/></svg>