<svg xmlns="http://www.w3.org/2000/svg"  viewBox="0 0 48 48" width="420px" height="420px"><circle cx="28" cy="28" r="9.5" fill="#ffe082"/><line x1="24" x2="24" y1="5.5" y2="8.5" fill="none" stroke="#18193f" stroke-linecap="round" stroke-miterlimit="10" stroke-width="3"/><line x1="10.9" x2="13" y1="10.9" y2="13" fill="none" stroke="#18193f" stroke-linecap="round" stroke-miterlimit="10" stroke-width="3"/><line x1="5.5" x2="8.5" y1="24" y2="24" fill="none" stroke="#18193f" stroke-linecap="round" stroke-miterlimit="10" stroke-width="3"/><line x1="10.9" x2="13" y1="37.1" y2="35" fill="none" stroke="#18193f" stroke-linecap="round" stroke-miterlimit="10" stroke-width="3"/><line x1="24" x2="24" y1="42.5" y2="39.5" fill="none" stroke="#18193f" stroke-linecap="round" stroke-miterlimit="10" stroke-width="3"/><line x1="37.1" x2="35" y1="37.1" y2="35" fill="none" stroke="#18193f" stroke-linecap="round" stroke-miterlimit="10" stroke-width="3"/><line x1="42.5" x2="39.5" y1="24" y2="24" fill="none" stroke="#18193f" stroke-linecap="round" stroke-miterlimit="10" stroke-width="3"/><line x1="37.1" x2="35" y1="10.9" y2="13" fill="none" stroke="#18193f" stroke-linecap="round" stroke-miterlimit="10" stroke-width="3"/><path fill="none" stroke="#18193f" stroke-linecap="round" stroke-miterlimit="10" stroke-width="3" d="M26.9,33.1C26,33.3,25,33.5,24,33.5c-5.2,0-9.5-4.3-9.5-9.5c0-1.1,0.2-2.2,0.6-3.2"/><path fill="none" stroke="#18193f" stroke-linecap="round" stroke-miterlimit="10" stroke-width="3" d="M20.2,15.3c1.2-0.5,2.4-0.8,3.8-0.8c5.2,0,9.5,4.3,9.5,9.5c0,1.1-0.2,2.2-0.5,3.1"/></svg>