<svg xmlns="http://www.w3.org/2000/svg"  viewBox="0 0 48 48" width="420px" height="420px"><path fill="#90caf9" d="M43,44H13c-0.552,0-1-0.448-1-1V13c0-0.552,0.448-1,1-1h30c0.552,0,1,0.448,1,1v30	C44,43.552,43.552,44,43,44z"/><path fill="none" stroke="#18193f" stroke-linecap="round" stroke-miterlimit="10" stroke-width="3" d="M15.043,7.5	H20.5c0.552,0,1,0.448,1,1v12c0,0.552-0.448,1-1,1h-2.16"/><path fill="none" stroke="#18193f" stroke-linecap="round" stroke-miterlimit="10" stroke-width="3" d="M13.702,21.5	H8.5c-0.552,0-1-0.448-1-1v-12c0-0.552,0.448-1,1-1h2.138"/><path fill="none" stroke="#18193f" stroke-linecap="round" stroke-miterlimit="10" stroke-width="3" d="M27.5,7.5h12	c0.552,0,1,0.448,1,1v12c0,0.552-0.448,1-1,1h-12c-0.552,0-1-0.448-1-1v-12C26.5,7.948,26.948,7.5,27.5,7.5z"/><path fill="none" stroke="#18193f" stroke-linecap="round" stroke-miterlimit="10" stroke-width="3" d="M9.809,40.5	H8.5c-0.552,0-1-0.448-1-1v-12c0-0.552,0.448-1,1-1h12c0.552,0,1,0.448,1,1v12c0,0.552-0.448,1-1,1h-6.691H9.809z"/><path fill="none" stroke="#18193f" stroke-linecap="round" stroke-miterlimit="10" stroke-width="3" d="M32.66,40.5	H27.5c-0.552,0-1-0.448-1-1v-12c0-0.552,0.448-1,1-1h2.436"/><path fill="none" stroke="#18193f" stroke-linecap="round" stroke-miterlimit="10" stroke-width="3" d="M34.319,26.5	H39.5c0.552,0,1,0.448,1,1v12c0,0.552-0.448,1-1,1h-1.383"/></svg>