<svg xmlns="http://www.w3.org/2000/svg"  viewBox="0 0 48 48" width="420px" height="420px"><path fill="#ffab91" d="M28.008,46.433c0.615,0.351,1.37,0.351,1.985,0l7.852-4.487c1.72-0.983,3.027-2.553,3.681-4.423	l4.482-13.584c0.166-0.502,0.126-1.049-0.11-1.521l-1.276-2.551l0.861-1.291c0.47-0.705,0.445-1.629-0.062-2.307l-1.589-2.125	c-1.001-1.001-2.53-1.249-3.796-0.616l-1.169,0.584l-3.525-3.525C34.966,10.211,34.458,10,33.927,10h-9.854	c-0.53,0-1.039,0.211-1.414,0.586l-3.525,3.525l-1.168-0.585c-1.266-0.633-2.796-0.385-3.796,0.616l-1.59,2.126	c-0.507,0.678-0.532,1.602-0.062,2.307l0.861,1.291l-1.276,2.551c-0.236,0.473-0.276,1.019-0.11,1.521l4.482,13.584	c0.654,1.87,1.962,3.44,3.681,4.423L28.008,46.433z"/><path fill="#18193f" d="M38.496,30.58c-0.786-0.256-1.635,0.168-1.895,0.955l-0.491,1.492 c-0.536,1.529-1.604,2.813-3.01,3.615l-7.853,4.488c-0.152,0.085-0.342,0.088-0.496-0.001l-7.853-4.487 c-1.405-0.803-2.474-2.087-3.001-3.589l-2.895-8.773c-0.26-0.788-1.11-1.213-1.895-0.955c-0.787,0.26-1.214,1.108-0.954,1.895 l2.904,8.8c0.774,2.21,2.32,4.066,4.353,5.229l7.852,4.486c0.536,0.307,1.136,0.46,1.737,0.46s1.201-0.153,1.736-0.459l7.852-4.487 c2.033-1.161,3.579-3.018,4.362-5.255l0.5-1.519C39.71,31.688,39.283,30.84,38.496,30.58z"/><path fill="#18193f" d="M43.24,17.747l-0.887-1.773l0.769-1.153c0.586-0.877,0.556-2.036-0.077-2.885l-2.012-2.69 c-0.043-0.058-0.09-0.111-0.14-0.162c-1.458-1.46-3.68-1.819-5.528-0.897l-0.202,0.101l-2.761-2.761 C31.741,4.864,30.862,4.5,29.927,4.5h-9.854c-0.935,0-1.813,0.364-2.475,1.025l-2.761,2.761l-0.202-0.102 c-1.846-0.922-4.067-0.563-5.527,0.897c-0.05,0.051-0.097,0.104-0.14,0.162l-2.014,2.693c-0.631,0.847-0.662,2.006-0.077,2.882 l0.77,1.154L6.76,17.747c-0.417,0.833-0.485,1.778-0.193,2.662c0.26,0.785,1.106,1.215,1.895,0.953 c0.787-0.26,1.213-1.107,0.954-1.895c-0.041-0.124-0.031-0.262,0.028-0.379l1.276-2.552c0.241-0.481,0.205-1.056-0.094-1.503 l-1.057-1.585l1.727-2.31c0.544-0.491,1.334-0.604,1.997-0.272l1.168,0.585c0.578,0.291,1.274,0.176,1.732-0.28l3.525-3.525 C19.813,7.554,19.941,7.5,20.073,7.5h9.854c0.131,0,0.26,0.054,0.354,0.146l3.525,3.525c0.456,0.456,1.154,0.569,1.731,0.281 l1.169-0.584c0.662-0.331,1.455-0.221,1.999,0.271l1.726,2.309l-1.057,1.585c-0.299,0.447-0.334,1.021-0.094,1.503l1.276,2.552 c0.059,0.117,0.069,0.255,0.028,0.38l-2.283,6.92c-0.26,0.786,0.167,1.635,0.954,1.895c0.156,0.051,0.314,0.075,0.471,0.075 c0.629,0,1.216-0.399,1.424-1.03l2.283-6.919C43.725,19.525,43.656,18.58,43.24,17.747z"/><path fill="#18193f" d="M15.505,19.396l2.382-3.975l1.964,0.394c1.323,0.268,2.687-0.11,3.684-1.011 c0.429-0.23,0.908-0.356,1.392-0.367c0.828-0.019,1.484-0.705,1.466-1.533c-0.018-0.829-0.702-1.483-1.533-1.467 c-1.053,0.024-2.088,0.323-2.995,0.866c-0.106,0.063-0.204,0.14-0.291,0.228c-0.297,0.297-0.718,0.425-1.133,0.343l-2.311-0.463 c-1.035-0.207-2.091,0.262-2.635,1.166l-2.536,4.231c-0.941,1.366-0.908,3.166,0.092,4.501l3.047,4.062 c-0.88,1.506-0.779,3.412,0.277,4.821c0.224,0.299,0.492,0.577,0.787,0.828c0.071,0.101,0.15,0.196,0.247,0.28l5.964,5.112 c0.471,0.403,1.048,0.604,1.625,0.604c0.578,0,1.156-0.202,1.627-0.605l5.963-5.112c0.097-0.083,0.177-0.179,0.247-0.279 c0.295-0.251,0.564-0.53,0.788-0.829c1.055-1.407,1.156-3.313,0.277-4.819l3.046-4.062c1-1.333,1.034-3.134,0.091-4.501 l-2.535-4.231c-0.542-0.904-1.599-1.376-2.635-1.166l-1.449,0.29c-0.812,0.162-1.339,0.953-1.176,1.765 c0.162,0.813,0.948,1.336,1.765,1.177l1.103-0.221l2.381,3.975c0.021,0.034,0.042,0.067,0.066,0.101 c0.218,0.306,0.213,0.712-0.012,1.012l-3.678,4.904c-0.382,0.51-0.401,1.204-0.047,1.733l0.446,0.668 c0.32,0.481,0.303,1.114-0.044,1.577c-0.375,0.5-1.057,0.84-1.401,0.908c-0.35-0.174-1.11-0.754-1.731-1.228 c-0.481-0.367-1.025-0.771-1.596-1.179l2.041-1.363c1.208-0.806,1.792-2.282,1.468-3.692l-0.565-3.504l3.421-1.662l-1.571-0.786 l-1.581,0.012c-0.079,0.001-0.159,0.002-0.238,0.029l-2.357,0.786c-0.726,0.202-0.853,0.974-0.754,1.373L26.4,19.31 c0.001,0.005,0,0.01,0.001,0.015l0.653,4.047c0.007,0.042,0.016,0.085,0.026,0.127c0.051,0.204-0.032,0.421-0.208,0.538 l-1.869,1.248l-1.869-1.248c-0.175-0.117-0.259-0.334-0.208-0.539c0.011-0.042,0.02-0.084,0.026-0.126l0.653-4.047 c0.001-0.005,0-0.009,0.001-0.014l0.039-0.225c0.099-0.398-0.028-1.17-0.754-1.373l-2.357-0.786 c-0.079-0.027-0.159-0.028-0.238-0.029l-1.581-0.012l-1.571,0.786l3.421,1.662L20,22.838c-0.323,1.411,0.261,2.887,1.468,3.692 l2.027,1.353c-0.666,0.469-1.261,0.924-1.763,1.308c-0.557,0.426-1.238,0.946-1.556,1.108c-0.344-0.068-1.026-0.407-1.401-0.908 c-0.347-0.462-0.365-1.095-0.044-1.575l0.447-0.671c0.353-0.529,0.333-1.224-0.048-1.732l-3.678-4.903 c-0.225-0.301-0.23-0.708-0.012-1.013C15.462,19.464,15.484,19.431,15.505,19.396z M25,34.854l-2.725-2.335 c0.38-0.261,0.795-0.575,1.278-0.944c0.436-0.333,0.926-0.698,1.443-1.069c0.45,0.327,0.884,0.652,1.277,0.952 c0.551,0.42,1.021,0.777,1.446,1.065L25,34.854z"/></svg>