<svg xmlns="http://www.w3.org/2000/svg" viewBox="0 0 48 48" width="420px" height="420px">
    <path fill="#90caf9"
        d="M37,46H17c-3.3,0-6-2.7-6-6V20c0-3.3,2.7-6,6-6h20c3.3,0,6,2.7,6,6v20C43,43.3,40.3,46,37,46z" />
    <path fill="none" stroke="#18193f" stroke-linecap="round" stroke-linejoin="round" stroke-miterlimit="10"
        stroke-width="3" d="M6.5,20.5v-5c0-3.3,2.7-6,6-6h10" />
    <path fill="none" stroke="#18193f" stroke-linecap="round" stroke-linejoin="round" stroke-miterlimit="10"
        stroke-width="3" d="M38.5,25.5v10c0,3.3-2.7,6-6,6h-20c-3.3,0-6-2.7-6-6v-7" />
    <line x1="23.5" x2="41.5" y1="24.5" y2="6.5" fill="none" stroke="#18193f" stroke-linecap="round"
        stroke-linejoin="round" stroke-miterlimit="10" stroke-width="3" />
    <polyline fill="none" stroke="#18193f" stroke-linecap="round" stroke-linejoin="round" stroke-miterlimit="10"
        stroke-width="3" points="27.5,6.5 41.5,6.5 41.5,20.5" />
</svg>