<svg xmlns="http://www.w3.org/2000/svg"  viewBox="0 0 48 48" width="420px" height="420px"><path fill="#90caf9" d="M44.5,38.3L36.2,30c2.3-4.9,1.5-10.9-2.6-15C28.5,9.9,20.1,9.9,15,15s-5.1,13.5,0,18.6	c4.1,4.1,10.1,4.9,15,2.6l8.3,8.3c1.7,1.7,4.5,1.7,6.2,0C46.2,42.8,46.2,40,44.5,38.3z"/><path fill="none" stroke="#18193f" stroke-linecap="round" stroke-linejoin="round" stroke-miterlimit="10" stroke-width="3" d="M32.4,26.2l8.1,8.1c1.7,1.7,1.7,4.5,0,6.2l0,0c-1.7,1.7-4.5,1.7-6.2,0L30,36.2"/><path fill="none" stroke="#18193f" stroke-linecap="round" stroke-linejoin="round" stroke-miterlimit="10" stroke-width="3" d="M8,25c-1.8-4.7-0.8-10.2,3-14c3.8-3.8,9.5-4.8,14.2-2.9"/><path fill="none" stroke="#18193f" stroke-linecap="round" stroke-linejoin="round" stroke-miterlimit="10" stroke-width="3" d="M31.3,13.1c3.4,5.1,2.8,12.1-1.7,16.6c-4.9,4.9-12.6,5.1-17.7,0.8"/></svg>