<svg xmlns="http://www.w3.org/2000/svg"  viewBox="0 0 48 48" width="48px" height="48px"><path fill="#8ce7f2" d="M47.7,14.3c-0.3-0.3-0.7-0.4-1.1-0.2l-0.2,0.1c-0.1,0.1-0.3,0.1-0.4,0.2c0.4-0.6,0.7-1.3,1-2.1	c0.1-0.4,0-0.8-0.3-1.1c-0.3-0.3-0.8-0.3-1.1-0.1c-1.6,1-3.1,1.6-4.7,1.9L40,13.2c0,0,0,0,0,0c-1.4-1-3.1-1.7-5-1.7	c-4.7,0-8.5,3.8-8.5,8.5v1.5c-12.2-0.7-15.5-9-15.5-9s-1.5,2-1.5,5c0,5,4,7,4,7c-3,0-5-1-5-1s0.5,5.5,7,8l-4,1c0,0,2,3.5,8,5	c0,0-3.5,3-12,3c0,0,3.5,4,13,4c16.3,0,22.8-15.1,23-24.1l0.1-0.1c3.1-2.6,4.2-4.7,4.3-4.8C48.1,15.1,48,14.6,47.7,14.3z"/><path fill="#18193f" d="M43.7,10.3c-0.3-0.3-0.7-0.4-1.1-0.2l-0.2,0.1c-0.1,0.1-0.3,0.1-0.4,0.2c0.4-0.6,0.7-1.3,1-2.1	c0.1-0.4,0-0.8-0.3-1.1s-0.8-0.3-1.1-0.1c-1.6,1-3.1,1.6-4.7,1.9L36,9.2c2.1,1.5,3.5,4,3.5,6.8c0,0.1,0,0.3,0,0.4l0.1-0.1	c3.1-2.6,4.2-4.7,4.3-4.8C44.1,11.1,44,10.6,43.7,10.3z"/><path fill="none" stroke="#18193f" stroke-linecap="round" stroke-linejoin="round" stroke-width="3" d="M15.5,33.5c0,0-3.5,3-12,3c0,0,3.5,4,13,4c6.6,0,11.6-2.5,15.2-6"/><path fill="none" stroke="#18193f" stroke-linecap="round" stroke-linejoin="round" stroke-width="3" d="M11.9,14.1C8.2,11.6,7,8.5,7,8.5s-1.5,2-1.5,5c0,5,4,7,4,7c-3,0-5-1-5-1s0.5,5.5,7,8l-4,1c0,0,2,3.5,8,5"/><path fill="none" stroke="#18193f" stroke-linecap="round" stroke-linejoin="round" stroke-width="3" d="M36,28.8c2.4-4.3,3.5-9.1,3.5-12.8c0-4.7-3.8-8.5-8.5-8.5s-8.5,3.8-8.5,8.5v1.5c-2-0.1-3.7-0.4-5.2-0.8"/></svg>