<svg xmlns="http://www.w3.org/2000/svg"  viewBox="0 0 48 48" width="420px" height="420px"><path fill="#ffab91" d="M24.727,13.573h0.005H24.727 M40.784,13.584h0.005H40.784 M34.955,13.755h0.005H34.955 M43.111,11.028h-2.996c-0.501,0-0.981,0.199-1.335,0.553l-0.391,0.391l-3.715-0.749c-0.124-0.026-0.249-0.037-0.373-0.037	c-0.484,0-0.954,0.186-1.31,0.528l-0.268,0.258h-1.889l-0.391-0.391c-0.354-0.354-0.835-0.553-1.335-0.553h-5.059	c-0.512,0-1.002,0.208-1.358,0.576l-0.356,0.368h-1.889l-0.367-0.376c-0.355-0.364-0.842-0.569-1.351-0.569h-5.838	c-1.044,0-1.889,0.845-1.889,1.889v9.588c0,0.486,0.188,0.955,0.524,1.306l0.42,0.439v2.833l-0.391,0.391	C11.199,27.828,11,28.309,11,28.81v3.182c0,0.524,0.217,1.024,0.601,1.382l0.344,0.321v2.833l-0.427,0.451	C11.185,37.33,11,37.794,11,38.278v4.861c0,1.044,0.845,1.889,1.889,1.889h10.452l0.321,0.344c0.357,0.383,0.858,0.601,1.382,0.601	h4.063c0.501,0,0.981-0.199,1.335-0.553l0.391-0.391h3.944c0.504,0,0.988-0.202,1.343-0.561l0.38-0.383h0.944l0.367,0.376	c0.355,0.364,0.842,0.569,1.351,0.569h1.277c0.501,0,0.981-0.199,1.335-0.553l0.392-0.391l1.733,0.904	c0.089,0.029,0.178,0.043,0.265,0.043c0.444,0,0.835-0.36,0.835-0.837V30.872l-0.944-0.955v-3.778l-0.944-0.944L45,22.361v-9.444	C45,11.873,44.155,11.028,43.111,11.028L43.111,11.028z"/><path fill="#18193f" d="M15.966,27.234c-0.19-0.19-0.462-0.271-0.727-0.218c-0.263,0.054-0.482,0.237-0.582,0.486l-1.6,4	c-0.134,0.336-0.027,0.72,0.263,0.937l3.2,2.4C16.661,34.946,16.83,35,17,35c0.122,0,0.245-0.028,0.358-0.084l3.2-1.6	c0.23-0.115,0.391-0.334,0.432-0.588c0.041-0.254-0.042-0.512-0.224-0.694L15.966,27.234z"/><path fill="#18193f" d="M34.564,26.954l-19.32-13.818c-0.273-0.167-0.614-0.182-0.899-0.039l-1.84,0.919	c-0.255,0.128-0.436,0.365-0.489,0.643s0.028,0.564,0.219,0.775l15.64,19.262C28.049,34.89,28.299,35,28.56,35h3.68	c0.411,0,0.772-0.269,0.885-0.659l1.84-6.364C35.078,27.586,34.914,27.168,34.564,26.954z"/><path fill="#18193f" d="M27.346,16.874l4.667,3c0.13,0.083,0.28,0.126,0.431,0.126c0.095,0,0.19-0.016,0.281-0.051	c0.236-0.088,0.412-0.281,0.474-0.517l0.778-3c0.08-0.308-0.05-0.63-0.323-0.806l-2.333-1.5c-0.233-0.15-0.53-0.167-0.779-0.047	l-3.111,1.5c-0.248,0.12-0.411,0.357-0.428,0.624C26.984,16.47,27.116,16.726,27.346,16.874z"/><path fill="#18193f" d="M18.002,10c0.813,0,1.591-0.33,2.155-0.915L20.239,9H20.5C21.329,9,22,8.328,22,7.5S21.329,6,20.5,6 h-0.685c-0.542,0-1.061,0.22-1.438,0.61L18,7h-2l-0.389-0.398C15.235,6.217,14.719,6,14.181,6H8C6.895,6,6,6.895,6,8v10.152 c0,0.515,0.199,1.011,0.555,1.383L7,20v3l-0.414,0.414C6.211,23.789,6,24.298,6,24.828v3.369c0,0.554,0.23,1.084,0.635,1.462L7,30 v3l-0.452,0.478C6.196,33.85,6,34.343,6,34.855V40c0,1.105,0.895,2,2,2h2.862c0.828,0,1.5-0.672,1.5-1.5s-0.672-1.5-1.5-1.5H9 v-3.749l0.179-0.189C9.706,34.505,10,33.767,10,33v-2.998c0-0.833-0.345-1.628-0.954-2.196L9,27.763v-2.52l0.121-0.121 C9.684,24.559,10,23.796,10,23v-3c0-0.771-0.297-1.513-0.83-2.071L9,17.751V9h4.76l0.095,0.097C14.421,9.674,15.195,10,16.003,10 H18.002z"/><path fill="#18193f" d="M42,8c0-1.105-0.895-2-2-2h-3.171c-0.531,0-1.04,0.211-1.415,0.586L35,7l-3.934-0.793 c-0.131-0.027-0.264-0.039-0.395-0.039c-0.512,0-1.01,0.197-1.387,0.559L29,7c0,0-2,0-2,0c-0.279-0.242-0.639-0.393-1.037-0.393 c-0.878,0-1.591,0.712-1.591,1.591c0,0.465,0.213,0.917,0.57,1.215c0.496,0.413,1.264,0.514,1.886,0.577 C26.885,9.995,26.943,10,27,10h2c0.732,0,1.437-0.267,1.984-0.749l3.424,0.69C34.604,9.981,34.803,10,35,10 c0.788,0,1.553-0.311,2.121-0.879L37.243,9H39v8.092l-1.489,2.233c-0.795,1.192-0.641,2.779,0.368,3.796L38,23.243v2.751 c0,0.792,0.311,1.551,0.867,2.115L39,28.244V38c-0.777,0-1.545,0.302-2.121,0.879L36.757,39H36.24l-0.095-0.097 C35.579,38.325,34.805,38,33.997,38h-0.992c-0.803,0-1.572,0.321-2.137,0.891L30.759,39H27c-0.791,0-1.55,0.313-2.112,0.87 L24.757,40h-3.453l-0.043-0.046C20.692,39.345,19.896,39,19.063,39H17.17c-0.828,0-1.5,0.672-1.5,1.5s0.672,1.5,1.5,1.5h1.897 l0.34,0.364C19.786,42.77,20.316,43,20.871,43h4.3c0.531,0,1.04-0.211,1.415-0.586L27,42h4.174c0.535,0,1.048-0.214,1.424-0.594 L33,41h1l0.389,0.398C34.765,41.783,35.281,42,35.819,42h1.349c0.531,0,1.041-0.211,1.417-0.586L39,41l1.835,0.957 c0.094,0.031,0.189,0.046,0.281,0.046c0.47,0,0.884-0.381,0.884-0.886V27.011L41,26v-4l-1-1l2-3V8z"/></svg>