<svg xmlns="http://www.w3.org/2000/svg"  viewBox="0 0 48 48" width="420px" height="420px"><path fill="#9fa8da" d="M42.081,12C43.693,12,45,13.307,45,14.919V29.81c0,1.412-0.511,2.776-1.44,3.839L36.273,42	c-0.554,0.635-1.356,1-2.199,1H28.68l-4.226,4.402C24.087,47.784,23.581,48,23.051,48H22c-0.552,0-1-0.448-1-1v-4h-7.081	C12.307,43,11,41.693,11,40.081V22.559c0-0.629,0.205-1.241,0.583-1.744l5.276-7.946C17.22,12.326,17.829,12,18.48,12H42.081z"/><path fill="none" stroke="#18193f" stroke-linecap="round" stroke-linejoin="round" stroke-width="3" d="M6.5,27.213V18.4	c0-0.649,0.211-1.281,0.6-1.8l6.026-7.925"/><path fill="none" stroke="#18193f" stroke-linecap="round" stroke-linejoin="round" stroke-width="3" d="M41.5,26.18	c0,1.493-0.556,2.932-1.56,4.036l-7.547,8.302c-0.569,0.625-1.375,0.982-2.22,0.982H24.5l-4.414,4.414	c-0.375,0.375-0.884,0.586-1.414,0.586H16.5v-5h-7c-1.657,0-3-1.343-3-3v-2.84"/><path fill="none" stroke="#18193f" stroke-linecap="round" stroke-linejoin="round" stroke-width="3" d="M15.5,7.5h23	c1.657,0,3,1.343,3,3v7.074"/><line x1="31.5" x2="31.5" y1="16.5" y2="24.5" fill="none" stroke="#18193f" stroke-linecap="round" stroke-linejoin="round" stroke-width="3"/><line x1="23.5" x2="23.5" y1="16.5" y2="24.5" fill="none" stroke="#18193f" stroke-linecap="round" stroke-linejoin="round" stroke-width="3"/><path fill="none" stroke="#18193f" stroke-linecap="round" stroke-linejoin="round" stroke-width="3" d="M31.5,33.5h-6l-5,4v-4h-7	c-0.552,0-1-0.448-1-1v-22c0-1.657,1.343-3,3-3"/></svg>