<svg xmlns="http://www.w3.org/2000/svg"  viewBox="0 0 48 48" width="420px" height="420px"><circle cx="28" cy="28" r="18.062" fill="#ffab91"/><path fill="none" stroke="#18193f" stroke-linecap="round" stroke-linejoin="round" stroke-miterlimit="10" stroke-width="3" d="M19.5,24h4.911c0.609,0,1.095,0.544,0.996,1.145c-0.552,3.353-3.486,5.903-7.006,5.854c-3.717-0.052-6.848-3.182-6.9-6.9	c-0.054-3.912,3.1-7.1,6.999-7.1c1.466,0,2.826,0.451,3.951,1.221"/><line x1="33.5" x2="33.5" y1="21" y2="27" fill="none" stroke="#18193f" stroke-linecap="round" stroke-miterlimit="10" stroke-width="3"/><line x1="36.5" x2="30.5" y1="24" y2="24" fill="none" stroke="#18193f" stroke-linecap="round" stroke-miterlimit="10" stroke-width="3"/><path fill="none" stroke="#18193f" stroke-linecap="round" stroke-linejoin="round" stroke-miterlimit="10" stroke-width="3" d="M34.744,39.062C31.715,41.227,28.006,42.5,24,42.5C13.783,42.5,5.5,34.217,5.5,24c0-3.593,1.024-6.947,2.797-9.785"/><path fill="none" stroke="#18193f" stroke-linecap="round" stroke-linejoin="round" stroke-miterlimit="10" stroke-width="3" d="M13.95,8.465C16.844,6.589,20.295,5.5,24,5.5c10.217,0,18.5,8.283,18.5,18.5c0,4.393-1.531,8.428-4.089,11.602"/></svg>