<svg xmlns="http://www.w3.org/2000/svg"  viewBox="0 0 48 48" width="420px" height="420px"><circle cx="28" cy="28" r="18" fill="#90caf9"/><path fill="#18193f" d="M28.512,22.195H30c1.657,0,3-1.343,3-3v-3.558c0-1.502-1.11-2.772-2.598-2.973	c-0.54-0.073-1.621-0.219-3.583-0.219c-5.586,0-8.921,3.537-8.921,9.463v1.713H17.06c-1.657,0-3,1.343-3,3v4.077	c0,1.657,1.343,3,3,3h0.837V42h3V31.697c0-0.552-0.448-1-1-1H17.06V26.62h2.838c0.552,0,1-0.448,1-1v-3.713	c0-4.491,2.188-6.463,5.921-6.463c1.787,0,2.733,0.132,3.181,0.192v3.558h-2.546c-1.584,0-2.138,1.502-2.138,3.196v3.229	c0,0.552,0.448,1,1,1h3.644l-0.63,4.077h-3.014c-0.552,0-1,0.448-1,1v4.151c0,0.834,0.686,1.516,1.519,1.484	c0.01,0,0.02-0.001,0.03-0.001c0.806-0.03,1.45-0.677,1.45-1.484v-2.15h1.014c1.48,0,2.739-1.079,2.965-2.542l0.61-3.946	c0.05-0.253,0.069-0.516,0.052-0.788c-0.103-1.607-1.55-2.802-3.16-2.802l-1.48,0v-1.229C28.392,22.315,28.436,22.271,28.512,22.195	z"/><path fill="none" stroke="#18193f" stroke-linecap="round" stroke-linejoin="round" stroke-miterlimit="10" stroke-width="3" d="M35.768,38.275C32.57,40.915,28.47,42.5,24,42.5C13.783,42.5,5.5,34.217,5.5,24c0-3.193,0.809-6.197,2.233-8.818"/><path fill="none" stroke="#18193f" stroke-linecap="round" stroke-linejoin="round" stroke-miterlimit="10" stroke-width="3" d="M14.059,8.395C16.93,6.562,20.341,5.5,24,5.5c10.217,0,18.5,8.283,18.5,18.5c0,2.5-0.496,4.884-1.395,7.059"/></svg>