<?xml version="1.0" encoding="utf-8"?>
<!-- Generator: Adobe Illustrator 23.0.3, SVG Export Plug-In . SVG Version: 6.00 Build 0)  -->
<svg version="1.1" id="Layer_1" xmlns="http://www.w3.org/2000/svg" xmlns:xlink="http://www.w3.org/1999/xlink" x="0px" y="0px"
	 viewBox="0 0 48 48" style="enable-background:new 0 0 48 48;" xml:space="preserve">
<style type="text/css">
	.st0{fill:#9FA8DA;}
	.st1{fill:#FFE082;}
	.st2{fill:#8CE7F2;}
	.st3{fill:none;stroke:#000000;stroke-width:3;stroke-linecap:round;stroke-linejoin:round;stroke-miterlimit:10;}
	.st4{fill:none;stroke:#000000;stroke-width:3;stroke-linecap:round;stroke-linejoin:round;}
	.st5{fill:none;stroke:#000000;stroke-width:3;}
	.st6{fill:none;stroke:#000000;stroke-width:3;stroke-linecap:round;}
	.st7{fill:none;stroke:#000000;stroke-width:3;stroke-miterlimit:10;}
	.st8{fill:none;stroke:#000000;stroke-width:3;stroke-linecap:round;stroke-miterlimit:10;}
	.st9{fill:none;stroke:#000000;stroke-width:3;stroke-linejoin:round;stroke-miterlimit:10;}
	.st10{fill:#A5D6A7;}
	.st11{fill:#F48FB1;}
	.st12{fill:#90CAF9;}
	.st13{fill:#FFAB91;}
	.st14{fill:#18193F;}
	.st15{fill:none;stroke:#18193F;stroke-width:3;stroke-linecap:round;stroke-linejoin:round;}
	.st16{fill:none;stroke:#18193F;stroke-width:3;stroke-linecap:round;stroke-linejoin:round;stroke-miterlimit:10;}
	.st17{fill:none;stroke:#18193F;stroke-width:3;}
	.st18{fill:none;stroke:#18193F;stroke-width:3;stroke-linecap:round;}
	.st19{fill:none;stroke:#18193F;stroke-width:3;stroke-miterlimit:10;}
	.st20{fill:none;stroke:#18193F;stroke-width:3;stroke-linecap:round;stroke-miterlimit:10;}
	.st21{fill:none;stroke:#18193F;stroke-width:3;stroke-linejoin:round;stroke-miterlimit:10;}
</style>
<path class="st1" d="M27.5,17.5l-4.9-4.1c-0.7-0.6-1.6-0.9-2.6-0.9h-7.6c-1.7,0-3,1.3-3,3v25c0,1.7,1.3,3,3,3h31c1.7,0,3-1.3,3-3
	v-20c0-1.7-1.3-3-3-3H27.5z"/>
<path class="st15" d="M42.5,27.4V16.5c0-1.7-1.3-3-3-3h-16l-4.9-4.1c-0.7-0.6-1.6-0.9-2.6-0.9H8.5c-1.7,0-3,1.3-3,3v6"/>
<path class="st15" d="M5.5,24.3v12.2c0,1.7,1.3,3,3,3h31c1.7,0,3-1.3,3-3v-3"/>
</svg>