<svg xmlns="http://www.w3.org/2000/svg"  viewBox="0 0 48 48" width="420px" height="420px"><path fill="#a5d6a7" d="M42,45H15c-1.7,0-3-1.3-3-3V15c0-1.7,1.3-3,3-3h27c1.7,0,3,1.3,3,3v27C45,43.7,43.7,45,42,45z"/><polyline fill="none" stroke="#18193f" stroke-linecap="round" stroke-linejoin="round" stroke-miterlimit="10" stroke-width="3" points="17.5,23.5 22.5,28.5 33,18"/><path fill="none" stroke="#18193f" stroke-linecap="round" stroke-linejoin="round" stroke-miterlimit="10" stroke-width="3" d="M40.5,30.9v6.6c0,1.7-1.3,3-3,3h-27c-1.7,0-3-1.3-3-3V24"/><path fill="none" stroke="#18193f" stroke-linecap="round" stroke-linejoin="round" stroke-miterlimit="10" stroke-width="3" d="M7.5,17.1v-6.6c0-1.7,1.3-3,3-3h27c1.7,0,3,1.3,3,3v12.8"/></svg>