<svg xmlns="http://www.w3.org/2000/svg"  viewBox="0 0 48 48" width="420px" height="420px"><path fill="#90caf9" d="M40.971,11.004H15.029c-1.135,0-2.029,0.967-1.939,2.099l2.226,28.126	c0.06,0.763,0.563,1.42,1.283,1.678l10.745,3.851c0.424,0.152,0.888,0.152,1.313,0l10.745-3.851c0.72-0.258,1.223-0.915,1.283-1.678	l2.226-28.126C43,11.971,42.106,11.004,40.971,11.004z"/><path fill="none" stroke="#18193f" stroke-linecap="round" stroke-linejoin="round" stroke-miterlimit="10" stroke-width="3" d="M9.473,18.79l1.486,18.785c0.062,0.784,0.578,1.46,1.319,1.725l11.047,3.959c0.436,0.156,0.913,0.156,1.349,0l11.047-3.959	c0.741-0.265,1.257-0.941,1.319-1.725l0.344-4.35"/><path fill="none" stroke="#18193f" stroke-linecap="round" stroke-linejoin="round" stroke-miterlimit="10" stroke-width="3" d="M37.959,25.968l1.37-17.31C39.421,7.495,38.502,6.5,37.335,6.5H10.665c-1.167,0-2.086,0.995-1.994,2.158l0.277,3.505"/><polyline fill="none" stroke="#18193f" stroke-linecap="round" stroke-linejoin="round" stroke-miterlimit="10" stroke-width="3" points="17.702,13.439 32.149,13.439 31.198,32.219 24.543,34.561 17.616,31.927 17.616,29.683"/><line x1="20.374" x2="31.676" y1="23.004" y2="23.004" fill="none" stroke="#18193f" stroke-linecap="round" stroke-linejoin="round" stroke-miterlimit="10" stroke-width="3"/></svg>