<svg xmlns="http://www.w3.org/2000/svg"  viewBox="0 0 48 48" width="420px" height="420px"><circle cx="28" cy="28" r="18" fill="#8ce7f2"/><path fill="none" stroke="#18193f" stroke-linecap="round" stroke-linejoin="round" stroke-miterlimit="10" stroke-width="3" d="M30.826,41.2c-2.112,0.839-4.415,1.3-6.826,1.3C13.783,42.5,5.5,34.217,5.5,24c0-4.097,1.332-7.883,3.586-10.948"/><path fill="none" stroke="#18193f" stroke-linecap="round" stroke-linejoin="round" stroke-miterlimit="10" stroke-width="3" d="M15.107,7.774C17.746,6.324,20.777,5.5,24,5.5c10.217,0,18.5,8.283,18.5,18.5c0,4.56-1.65,8.735-4.385,11.96"/><path fill="#18193f" d="M34.877,22.29c0.57-2.02-0.201-4.055-1.801-5.206c-0.793-0.57-1.735-0.872-2.724-0.872	c-1.288,0-2.554,0.527-3.472,1.445l-4.007,4.008l-1.315-1.315c-0.918-0.918-2.183-1.445-3.47-1.445c-0.99,0-1.933,0.302-2.727,0.874	c-1.599,1.152-2.368,3.187-1.798,5.206c0.227,0.804,0.702,1.518,1.293,2.109l4.524,4.524c0.781,0.781,1.78,1.349,2.876,1.486	c1.496,0.187,2.937-0.311,3.98-1.354l1.179-1.179c0.586-0.586,0.586-1.536,0-2.121l0,0c-0.586-0.586-1.536-0.586-2.121,0l-1.18,1.18	c-0.342,0.342-0.791,0.514-1.241,0.514c-0.449,0-0.898-0.172-1.24-0.514l-4.743-4.744c-0.754-0.753-0.679-2.021,0.225-2.672	c0.292-0.21,0.631-0.308,0.973-0.308c0.49,0,0.985,0.202,1.349,0.566l2.729,2.73c0.195,0.195,0.451,0.293,0.707,0.293	s0.512-0.098,0.707-0.293l5.422-5.422c0.365-0.365,0.86-0.567,1.351-0.567c0.342,0,0.681,0.098,0.973,0.307	c0.904,0.65,0.979,1.919,0.225,2.672l-2.139,2.139c-0.586,0.586-0.586,1.536,0,2.121l0,0c0.586,0.586,1.536,0.586,2.121,0	l2.052-2.052C34.175,23.81,34.65,23.095,34.877,22.29z"/></svg>