<svg xmlns="http://www.w3.org/2000/svg"  viewBox="0 0 48 48" width="420px" height="420px"><path fill="#8ce7f2" d="M28,9.5C17.8,9.5,9.5,17.8,9.5,28c0,3.3,0.9,6.3,2.3,9l-2.3,8.2c-0.2,0.8,0.5,1.4,1.2,1.2l8.2-2.3	c2.7,1.5,5.7,2.3,9,2.3c10.2,0,18.5-8.3,18.5-18.5S38.2,9.5,28,9.5z"/><line x1="24" x2="24" y1="14.5" y2="26.5" fill="none" stroke="#18193f" stroke-linecap="round" stroke-width="3"/><path fill="none" stroke="#18193f" stroke-linecap="round" stroke-linejoin="round" stroke-width="3" d="M41.1,31c0.9-2.2,1.4-4.5,1.4-7c0-10.2-8.3-18.5-18.5-18.5c-2.9,0-5.6,0.6-8,1.8"/><path fill="none" stroke="#18193f" stroke-linecap="round" stroke-linejoin="round" stroke-width="3" d="M9.8,12.2C7.1,15.4,5.5,19.5,5.5,24c0,3.3,0.9,6.3,2.3,9l-2.3,8.2C5.3,42,6,42.7,6.8,42.5l8.2-2.3	c2.7,1.5,5.7,2.3,9,2.3c4.7,0,9.1-1.8,12.3-4.7"/><circle cx="24" cy="33" r="2" fill="#18193f"/></svg>