<svg xmlns="http://www.w3.org/2000/svg" viewBox="0 0 48 48" width="420px" height="420px">
    <path fill="#90caf9"
        d="M28,47.5c-11.1-2.7-16-15.3-16-19.7V14.4c0-1.1,0.6-2,1.5-2.6C15.9,10.4,21,8,28,8c7,0,12.1,2.4,14.5,3.8	c0.9,0.5,1.5,1.5,1.5,2.6v13.4C44,32.1,39.1,44.7,28,47.5z" />
    <path fill="none" stroke="#18193f" stroke-linecap="round" stroke-linejoin="round" stroke-width="3"
        d="M32.8,39.2c-2.3,2.4-5.2,4.4-8.8,5.3C13.3,41.8,8.5,29.4,8.5,25v-4" />
    <path fill="none" stroke="#18193f" stroke-linecap="round" stroke-linejoin="round" stroke-width="3"
        d="M8.5,15.4v-3.6c0-1,0.5-2,1.4-2.6c2.3-1.4,7.2-3.7,14.1-3.7c6.8,0,11.8,2.4,14.1,3.7c0.9,0.5,1.4,1.5,1.4,2.6	V25c0,1.6-0.7,4.4-2.1,7.4" />
    <path fill="#18193f"
        d="M16.5,18c-1.2,0-2.3,0.4-3.1,1.1c-0.2,0.2-0.2,0.6,0,0.8c0.8,0.7,1.9,1.1,3.1,1.1s2.3-0.4,3.1-1.1	c0.2-0.2,0.2-0.6,0-0.8C18.8,18.4,17.7,18,16.5,18z" />
    <line x1="24" x2="24" y1="44" y2="37.5" fill="none" stroke="#18193f" stroke-linecap="round" stroke-width="3" />
    <path fill="none" stroke="#18193f" stroke-linecap="round" stroke-linejoin="round" stroke-width="3"
        d="M21.5,16.5c0,0-4-5-8-2" />
    <path fill="#18193f"
        d="M28.4,19.1c-0.2,0.2-0.2,0.6,0,0.8c0.8,0.7,1.9,1.1,3.1,1.1s2.3-0.4,3.1-1.1c0.2-0.2,0.2-0.6,0-0.8	c-0.8-0.7-1.9-1.1-3.1-1.1S29.2,18.4,28.4,19.1z" />
    <path fill="none" stroke="#18193f" stroke-linecap="round" stroke-linejoin="round" stroke-width="3"
        d="M26.5,16.5c0,0,4-5,8-2" />
    <path fill="none" stroke="#18193f" stroke-linecap="round" stroke-linejoin="round" stroke-width="3"
        d="M14.5,28.5l0.8,1.6c0.7,1.4,2.2,2.4,3.8,2.4l0,0c1.5,0,2.8-0.8,3.6-2l1.2-2l1.2,2c0.8,1.2,2.1,2,3.6,2l0,0	c1.6,0,3.1-0.9,3.8-2.4l0.8-1.6" />
</svg>