<svg xmlns="http://www.w3.org/2000/svg"  viewBox="0 0 48 48" width="420px" height="420px" baseProfile="basic"><circle cx="28" cy="28" r="19" fill="#a5d6a7"/><path fill="#18193f" d="M24,44C12.972,44,4,35.028,4,24c0-4.512,1.493-8.808,4.318-12.423	c0.508-0.654,1.452-0.77,2.105-0.259c0.652,0.51,0.769,1.453,0.258,2.105C8.273,16.507,7,20.164,7,24c0,9.374,7.626,17,17,17	c1.362,0,2.746-0.185,4.113-0.549c0.804-0.216,1.622,0.262,1.836,1.063c0.214,0.8-0.263,1.622-1.062,1.835	C27.267,43.781,25.623,44,24,44z"/><path fill="#18193f" d="M36.001,39.6c-0.425,0-0.848-0.18-1.144-0.528c-0.537-0.631-0.46-1.578,0.171-2.115	C38.823,33.731,41,29.009,41,24c0-9.374-7.626-17-17-17c-2.101,0-4.302,0.416-6.366,1.202c-0.772,0.295-1.641-0.094-1.936-0.868	c-0.295-0.774,0.094-1.641,0.867-1.936C18.968,4.483,21.538,4,24,4c11.028,0,20,8.972,20,20c0,5.891-2.562,11.446-7.028,15.243	C36.689,39.483,36.344,39.6,36.001,39.6z"/><path fill="#18193f" d="M34.954,22.245c-0.234,0-0.471-0.055-0.692-0.17c-6.207-3.237-13.355-3.993-20.132-2.124	c-0.795,0.219-1.624-0.249-1.845-1.048c-0.22-0.798,0.249-1.625,1.048-1.845c7.507-2.069,15.435-1.233,22.315,2.356	c0.734,0.383,1.02,1.289,0.637,2.024C36.018,21.951,35.495,22.245,34.954,22.245z"/><path fill="#18193f" d="M32.524,27.663c-0.23,0-0.464-0.053-0.683-0.166c-4.977-2.549-10.707-3.166-16.133-1.742	c-0.805,0.211-1.622-0.269-1.832-1.07s0.27-1.622,1.07-1.832c6.143-1.612,12.628-0.912,18.262,1.974	c0.737,0.377,1.029,1.282,0.651,2.019C33.595,27.364,33.069,27.663,32.524,27.663z"/><path fill="#18193f" d="M29.987,32.983c-0.222,0-0.447-0.05-0.66-0.154c-3.689-1.812-7.936-2.287-11.953-1.331	c-0.816,0.194-1.615-0.308-1.806-1.113c-0.191-0.806,0.307-1.614,1.112-1.806c4.695-1.113,9.655-0.561,13.969,1.557	c0.743,0.365,1.051,1.264,0.686,2.008C31.074,32.675,30.541,32.983,29.987,32.983z"/></svg>