<svg xmlns="http://www.w3.org/2000/svg"  viewBox="0 0 48 48" width="420px" height="420px"><path fill="#ffe082" d="M41.5,26.9c0,0,0-0.4,0-2.4c0-2.2-0.8-4.1-1.1-4.6c0.4-0.1,0.7-0.2,0.9-0.2c0.9-0.3,1.4-1.3,1-2.2	c-2.3-4.7-7.1-8-13.9-8c-9,0-14,5-14,13v4.4c-1.2,0.6-2,1.7-2,3.1c0,1.3,0.7,2.4,1.7,3c0.3,0.2,0.8,1.8,1.7,3.2	c0.6,1,1.6,1.8,1.9,2.4c2.3,4.7,6,7.9,10.2,7.9c5.6,0,10.4-5.5,11.9-13c0,0,0,0,0.1,0c1.9,0,3.5-1.6,3.5-3.5	C43.5,28.6,42.7,27.4,41.5,26.9z"/><circle cx="19" cy="26" r="2" fill="#18193f"/><circle cx="29" cy="26" r="2" fill="#18193f"/><path fill="none" stroke="#18193f" stroke-linecap="round" stroke-linejoin="round" stroke-miterlimit="10" stroke-width="3" d="M19.2,6.2c-5.6,1.6-8.7,6-8.7,12.3v4.4c-1.2,0.6-2,1.7-2,3.1c0,1.9,1.6,3.5,3.5,3.5c0,0,0,0,0.1,0	c1.6,7.5,6.3,13,11.9,13s10.4-5.5,11.9-13c0,0,0,0,0.1,0c1.9,0,3.5-1.6,3.5-3.5c0-1.4-0.8-2.6-2-3.1"/><path fill="none" stroke="#18193f" stroke-linecap="round" stroke-linejoin="round" stroke-miterlimit="10" stroke-width="3" d="M16.5,16.5c1.9-1.5,2.5-3,2.5-3s3,3,11,3c3.3,0,6-0.5,7.4-0.9c0.9-0.3,1.4-1.3,1-2.2C36.3,9.1,32,6,26,5.6"/></svg>