<svg xmlns="http://www.w3.org/2000/svg"  viewBox="0 0 48 48" width="420px" height="420px"><path fill="#90caf9" d="M40,33.5c-1,0-1.9,0.2-2.7,0.6L32.4,28l5.6-7.1c0.8,0.4,1.6,0.6,2.5,0.6c3.3,0,6-2.7,6-6s-2.7-6-6-6s-6,2.7-6,6	c0,1.3,0.4,2.6,1.2,3.6l-5.9,7.4h-7.5c-0.7-2.9-3.2-5-6.3-5c-3.6,0-6.5,2.9-6.5,6.5s2.9,6.5,6.5,6.5c3.1,0,5.6-2.1,6.3-5h7.5	l5.1,6.5c-0.9,1.1-1.4,2.5-1.4,4c0,3.6,2.9,6.5,6.5,6.5s6.5-2.9,6.5-6.5S43.6,33.5,40,33.5z"/><path fill="none" stroke="#18193f" stroke-linecap="round" stroke-linejoin="round" stroke-miterlimit="10" stroke-width="3" d="M12,30.5c-3.6,0-6.5-2.9-6.5-6.5s2.9-6.5,6.5-6.5s6.5,2.9,6.5,6.5"/><path fill="none" stroke="#18193f" stroke-linecap="round" stroke-linejoin="round" stroke-miterlimit="10" stroke-width="3" d="M36.5,5.5c3.3,0,6,2.7,6,6s-2.7,6-6,6s-6-2.7-6-6c0-0.1,0-0.1,0-0.2"/><path fill="none" stroke="#18193f" stroke-linecap="round" stroke-linejoin="round" stroke-miterlimit="10" stroke-width="3" d="M36,42.5c-3.6,0-6.5-2.9-6.5-6.5s2.9-6.5,6.5-6.5s6.5,2.9,6.5,6.5c0,0.7-0.1,1.4-0.3,2.1"/><polyline fill="none" stroke="#18193f" stroke-linecap="round" stroke-linejoin="round" stroke-miterlimit="10" stroke-width="3" points="18.5,24 26.5,24 32.6,16.3"/><line x1="26.5" x2="31.9" y1="24" y2="30.8" fill="none" stroke="#18193f" stroke-linecap="round" stroke-linejoin="round" stroke-miterlimit="10" stroke-width="3"/></svg>