<svg xmlns="http://www.w3.org/2000/svg"  viewBox="0 0 48 48" width="420px" height="420px"><path fill="#a5d6a7" d="M40.479,24.423c-1.02,5.832-5.193,8.692-8.07,13.831c-1.277,2.282-2.187,5.602-2.628,7.438	c-0.192,0.795-0.901,1.351-1.72,1.351l0,0c-0.848,0-1.57-0.598-1.736-1.43c-0.316-1.576-1.052-4.298-2.706-7.359	c-3.111-5.757-8.301-8.789-8.301-16.601c0-7.355,6.256-13.251,13.737-12.653C36.619,9.603,41.786,16.95,40.479,24.423z"/><path fill="none" stroke="#18193f" stroke-linecap="round" stroke-linejoin="round" stroke-miterlimit="10" stroke-width="3" d="M14.008,9.838c2.521-3.223,6.564-5.197,11.048-4.839c7.563,0.604,12.729,7.951,11.423,15.423c-0.259,1.482-0.722,2.771-1.315,3.956"/><path fill="none" stroke="#18193f" stroke-linecap="round" stroke-linejoin="round" stroke-miterlimit="10" stroke-width="3" d="M32.103,28.969c-1.253,1.623-2.572,3.281-3.694,5.285c-1.277,2.282-2.187,5.602-2.628,7.438c-0.192,0.795-0.901,1.351-1.72,1.351	l0,0c-0.848,0-1.57-0.598-1.736-1.43c-0.316-1.576-1.052-4.298-2.706-7.359c-3.111-5.757-8.301-8.789-8.301-16.601	c0-0.794,0.073-1.571,0.212-2.324"/><circle cx="24.015" cy="18.14" r="4.395" fill="none" stroke="#18193f" stroke-linecap="round" stroke-linejoin="round" stroke-miterlimit="10" stroke-width="3"/><line x1="25.567" x2="12.863" y1="9.492" y2="24.315" fill="none" stroke="#18193f" stroke-linecap="round" stroke-linejoin="round" stroke-miterlimit="10" stroke-width="3"/><line x1="35.164" x2="22.351" y1="11.872" y2="26.821" fill="none" stroke="#18193f" stroke-linecap="round" stroke-linejoin="round" stroke-miterlimit="10" stroke-width="3"/><line x1="14.01" x2="20.007" y1="9.839" y2="14.783" fill="none" stroke="#18193f" stroke-linecap="round" stroke-linejoin="round" stroke-miterlimit="10" stroke-width="3"/></svg>