<?xml version="1.0" standalone="no"?>
<!DOCTYPE svg PUBLIC "-//W3C//DTD SVG 20010904//EN"
 "http://www.w3.org/TR/2001/REC-SVG-20010904/DTD/svg10.dtd">
<svg version="1.0" xmlns="http://www.w3.org/2000/svg"
 width="168.000000pt" height="159.000000pt" viewBox="0 0 168.000000 159.000000"
 preserveAspectRatio="xMidYMid meet">

<g transform="translate(0.000000,159.000000) scale(0.100000,-0.100000)"
fill="#FFF" stroke="none">
<path d="M323 1473 c-7 -2 -13 -10 -13 -16 0 -8 4 -7 12 1 27 27 39 14 32 -37
-4 -29 -1 -63 5 -84 13 -37 101 -135 160 -176 l33 -24 -6 39 c-5 30 -1 49 16
84 25 49 67 71 54 29 -13 -42 -19 -107 -12 -133 3 -14 26 -48 50 -75 51 -57
63 -86 46 -106 -22 -27 -57 -17 -87 22 -40 53 -80 90 -143 133 -74 51 -129
107 -151 155 -10 22 -19 33 -19 24 0 -23 58 -111 93 -139 17 -14 57 -43 88
-65 31 -22 69 -54 83 -72 l26 -31 -21 -41 c-24 -48 -25 -47 -114 29 -65 57
-145 100 -186 100 -30 0 -100 -32 -119 -55 -12 -14 -9 -27 23 -90 42 -86 98
-152 144 -172 45 -18 114 -16 171 5 l49 19 -31 -88 c-29 -81 -30 -90 -18 -134
7 -27 21 -60 31 -74 18 -26 18 -29 -10 -180 -16 -85 -27 -157 -24 -159 6 -6
22 61 40 168 9 52 19 102 22 110 7 23 54 -39 47 -65 -2 -11 5 -35 16 -53 15
-25 27 -32 50 -32 20 0 39 -9 53 -24 12 -13 33 -27 47 -31 18 -4 14 0 -12 15
-38 21 -49 44 -25 53 6 3 -2 3 -20 0 -47 -8 -78 3 -91 32 -17 37 -15 43 17 60
23 11 33 27 45 70 21 72 54 91 127 76 34 -8 64 -8 96 -1 25 6 54 8 64 5 27 -9
59 -54 59 -83 0 -15 13 -37 35 -58 39 -36 42 -49 19 -82 -10 -15 -25 -22 -48
-22 -20 0 -36 -6 -39 -14 -11 -29 -60 -50 -131 -56 l-71 -7 58 -2 c64 -1 112
15 141 48 11 12 31 21 47 21 35 0 71 43 67 80 -2 24 36 89 46 79 2 -2 14 -56
25 -119 21 -115 39 -186 40 -162 1 7 -11 78 -25 157 l-26 143 26 51 c33 65 34
123 1 203 -14 34 -23 63 -21 65 2 3 25 -3 50 -11 99 -34 186 -12 244 61 36 47
92 156 92 181 0 12 -18 28 -51 46 -85 47 -118 35 -290 -97 l-63 -48 -18 37
c-10 21 -18 43 -18 49 0 17 57 69 135 122 120 83 179 192 155 285 -14 52 -26
68 -52 68 -24 0 -30 -18 -18 -55 9 -29 10 -28 4 8 -4 32 -2 37 14 37 19 0 31
-20 47 -78 10 -36 -21 -124 -60 -170 -20 -23 -68 -63 -107 -89 -39 -27 -92
-74 -117 -105 -25 -31 -56 -60 -68 -64 -67 -19 -72 39 -9 106 58 62 73 113 52
183 -16 55 -15 63 9 54 26 -11 55 -70 55 -114 0 -24 4 -43 9 -43 15 0 139 119
161 155 12 19 19 43 17 52 -4 14 -5 13 -6 -4 -1 -22 -46 -83 -62 -83 -5 0 -9
7 -9 15 0 8 -9 19 -19 24 -26 14 -37 -2 -44 -63 -2 -26 -11 -55 -19 -63 -13
-12 -15 -10 -16 21 -2 64 -61 140 -93 121 -10 -7 -10 -15 7 -97 10 -44 -5 -96
-36 -132 l-29 -33 -63 13 c-79 17 -114 17 -196 2 l-65 -12 -33 36 c-43 47 -52
95 -29 154 15 41 16 48 2 61 -31 32 -81 -25 -96 -110 -6 -37 -8 -40 -18 -22
-6 11 -13 42 -16 69 -4 27 -12 53 -18 57 -19 11 -39 -1 -45 -27 l-6 -23 -25
27 c-37 39 -45 70 -38 134 6 52 5 58 -12 57 -10 0 -24 -3 -30 -6z m157 -200
c0 -16 3 -39 6 -53 l7 -25 -28 27 c-22 20 -26 32 -21 52 9 35 36 34 36 -1z
m768 -4 c2 -15 -5 -32 -18 -44 -20 -18 -20 -18 -20 22 0 22 3 43 7 47 12 12
28 0 31 -25z m-963 -221 c15 -12 41 -49 56 -82 34 -75 69 -113 127 -138 51
-23 46 -31 -34 -49 -107 -24 -179 29 -261 192 -12 26 -23 50 -23 53 0 8 73 45
91 46 9 0 29 -10 44 -22z m1210 7 c20 -8 38 -21 41 -29 6 -16 -49 -125 -92
-182 -28 -37 -97 -74 -135 -74 -14 0 -50 7 -80 16 l-54 16 50 23 c62 28 86 54
125 134 31 64 72 111 97 111 7 0 29 -7 48 -15z m-848 -149 c33 -30 59 -66 77
-106 25 -55 28 -72 24 -144 -3 -80 -4 -84 -40 -117 -23 -22 -39 -48 -43 -71
-4 -20 -16 -45 -27 -55 -20 -18 -21 -17 -52 19 -52 60 -89 137 -89 182 0 23
12 70 27 106 15 36 29 92 33 125 7 67 18 105 32 105 5 0 31 -20 58 -44z m477
26 c3 -10 10 -49 15 -87 5 -39 21 -100 35 -138 14 -37 26 -80 26 -96 0 -33
-49 -132 -88 -180 -25 -29 -31 -32 -50 -22 -20 11 -24 19 -36 71 -3 14 -21 42
-40 62 -81 85 -51 255 62 361 56 51 68 56 76 29z"/>
<path d="M599 779 c-8 -16 -8 -28 0 -45 18 -41 71 -25 71 21 0 44 -50 61 -71
24z m57 0 c10 -17 -13 -36 -27 -22 -12 12 -4 33 11 33 5 0 12 -5 16 -11z"/>
<path d="M1023 794 c18 -6 23 -29 8 -39 -6 -3 -14 3 -20 12 -9 16 -10 15 -11
-8 0 -15 7 -32 16 -40 24 -20 49 1 49 42 0 31 -3 34 -30 36 -16 1 -22 -1 -12
-3z"/>
<path d="M296 1425 c-3 -9 -5 -35 -5 -58 2 -40 2 -39 9 13 7 59 6 71 -4 45z"/>
<path d="M946 383 c-29 -34 -30 -50 -1 -39 15 5 38 52 33 66 -2 3 -16 -9 -32
-27z"/>
<path d="M720 396 c0 -26 19 -56 35 -56 23 0 18 24 -10 50 -21 20 -25 21 -25
6z"/>
<path d="M755 321 c-11 -4 18 -6 65 -4 110 6 125 11 30 12 -41 0 -84 -4 -95
-8z"/>
<path d="M945 310 c27 -12 43 -12 25 0 -8 5 -22 9 -30 9 -10 0 -8 -3 5 -9z"/>
</g>
</svg>
