<svg xmlns="http://www.w3.org/2000/svg" viewBox="0 0 48 48" width="420px" height="420px">
    <path fill="#9fa8da"
        d="M41.581,17.688c-2.161-1.754-5.13-2.65-7.221-3.092c-1.476-0.312-2.965,0.52-3.45,1.971	c-0.202,0.604-0.479,1.783-0.522,2.238l0,0c-1.899-0.269-3.486-0.299-4.388-0.299c-0.898,0-2.475,0.029-4.362,0.295	c-0.116-0.635-0.383-1.738-0.549-2.233c-0.485-1.451-1.974-2.283-3.45-1.971c-2.09,0.442-5.06,1.338-7.221,3.092	c-1.785,1.665-5.843,11.646-5.843,21.079c1.933,3.43,6.644,5.051,9.545,5.636c1.146,0.231,2.316-0.232,3.007-1.19l1.813-2.528	c1.95,0.485,4.294,0.832,7.06,0.832c2.76,0,5.101-0.346,7.048-0.829l1.824,2.523c0.69,0.958,1.861,1.421,3.007,1.19	c2.901-0.585,7.612-2.206,9.545-5.636C47.424,29.334,43.366,19.354,41.581,17.688z" />
    <path fill="none" stroke="#18193f" stroke-linecap="round" stroke-linejoin="round" stroke-width="3"
        d="M44.742,25.616	c-1.233-6.817-3.829-12.685-5.161-13.928c-2.161-1.754-5.13-2.65-7.221-3.092c-1.476-0.312-2.965,0.52-3.45,1.971	c-0.202,0.604-0.368,1.21-0.411,1.665" />
    <path fill="none" stroke="#18193f" stroke-linecap="round" stroke-linejoin="round" stroke-width="3"
        d="M31.17,34.851l1.702,2.362	c0.69,0.958,1.861,1.421,3.007,1.19c2.901-0.585,7.612-2.206,9.545-5.636" />
    <path fill="none" stroke="#18193f" stroke-linecap="round" stroke-linejoin="round" stroke-width="3"
        d="M5.798,16.57	c-1.629,4.16-3.223,10.287-3.223,16.199c1.933,3.43,6.644,5.051,9.545,5.636c1.146,0.231,2.316-0.232,3.007-1.19l1.702-2.362" />
    <path fill="none" stroke="#18193f" stroke-linecap="round" stroke-linejoin="round" stroke-width="3"
        d="M19.5,12.234	c-0.043-0.455-0.209-1.061-0.411-1.665c-0.485-1.451-1.974-2.283-3.45-1.971c-2.09,0.442-5.06,1.338-7.221,3.092" />
    <path fill="none" stroke="#18193f" stroke-linecap="round" stroke-linejoin="round" stroke-width="3"
        d="M9.892,31.53	c0,0,4.674,3.989,14.108,3.989s14.108-3.989,14.108-3.989" />
    <path fill="none" stroke="#18193f" stroke-linecap="round" stroke-linejoin="round" stroke-width="3"
        d="M36.5,15.5	c-4.783-2.841-10.434-2.993-12.5-2.993s-7.717,0.152-12.5,2.993" />
    <ellipse cx="17.535" cy="25.96" fill="#18193f" rx="3.465" ry="3.96" />
    <ellipse cx="30.445" cy="26" fill="#18193f" rx="3.5" ry="4" />
</svg>