<svg xmlns="http://www.w3.org/2000/svg"  viewBox="0 0 48 48" width="420px" height="420px"><path fill="#9fa8da" d="M44,17.245H28.95l-2.285-5.961C26.368,10.511,25.626,10,24.797,10H12.022	C10.905,10,10,10.905,10,12.022v24.957C10,38.095,10.905,39,12.022,39h14.86l2.59,5.814C29.793,45.535,30.509,46,31.299,46H44	c1.105,0,2-0.895,2-2V19.245C46,18.14,45.105,17.245,44,17.245z"/><path fill="#18193f" d="M37.096,24.454h1.935v-1.793h-5.378v-1.793h-1.793v1.793h-2.746l0.625,1.793h5.333	c-0.684,1.264-1.516,2.38-2.387,3.343c-0.817-0.798-1.637-1.712-2.366-2.732l-0.294,0.21l1.282,3.678	c0.039,0.039,0.078,0.086,0.118,0.124c-0.019,0.018-0.038,0.033-0.057,0.05l0.643,1.843c0.247-0.214,0.496-0.434,0.748-0.672	c1.957,1.675,3.604,2.618,3.716,2.681l0.78,0.439l0.879-1.56l-0.779-0.441c-0.025-0.014-1.532-0.879-3.339-2.41	c1.065-1.18,2.09-2.571,2.896-4.187L37.096,24.454z"/><path fill="none" stroke="#18193f" stroke-linecap="round" stroke-linejoin="round" stroke-miterlimit="10" stroke-width="3" d="M31.421,13.531h8.153c1.075,0,1.947,0.872,1.947,1.947v24.096c0,1.075-0.872,1.947-1.947,1.947H24.638"/><path fill="none" stroke="#18193f" stroke-linecap="round" stroke-linejoin="round" stroke-miterlimit="10" stroke-width="3" d="M17.298,34.406H8.426c-1.075,0-1.947-0.872-1.947-1.947V16.596"/><path fill="none" stroke="#18193f" stroke-linecap="round" stroke-linejoin="round" stroke-miterlimit="10" stroke-width="3" d="M6.479,10.979V8.426c0-1.075,0.872-1.947,1.947-1.947h12.252c0.828,0,1.571,0.511,1.867,1.284l9.174,23.927	c0.502,1.31-0.465,2.716-1.867,2.716h-7.533"/><path fill="none" stroke="#18193f" stroke-linecap="round" stroke-linejoin="round" stroke-miterlimit="10" stroke-width="3" d="M31.421,33.644l-6.26,7.566c-0.57,0.597-1.577,0.286-1.71-0.528l-1.132-6.276"/><path fill="#18193f" d="M21.737,20.403h-4.99v1.862h3.189c-0.324,1.594-1.732,2.793-3.421,2.793	c-1.928,0-3.492-1.563-3.492-3.492s1.563-3.492,3.492-3.492c0.905,0,1.727,0.347,2.347,0.912l1.317-1.317	c-0.958-0.901-2.245-1.457-3.664-1.457c-2.957,0-5.354,2.397-5.354,5.354s2.398,5.353,5.354,5.353s5.354-2.397,5.354-5.354	C21.867,21.166,21.82,20.778,21.737,20.403z"/></svg>