<svg xmlns="http://www.w3.org/2000/svg"  viewBox="0 0 48 48" width="420px" height="420px"><path fill="#ffe082" d="M40.881,11.129H15.119c-1.127,0-2.015,0.961-1.926,2.084l2.21,27.93	c0.06,0.758,0.559,1.41,1.274,1.666l10.67,3.824c0.421,0.151,0.882,0.151,1.303,0l10.67-3.824c0.715-0.256,1.214-0.908,1.274-1.666	l2.21-27.93C42.895,12.09,42.008,11.129,40.881,11.129z"/><path fill="none" stroke="#18193f" stroke-linecap="round" stroke-linejoin="round" stroke-miterlimit="10" stroke-width="3" d="M37.787,28.147l1.542-19.489C39.421,7.495,38.502,6.5,37.335,6.5H10.665c-1.167,0-2.086,0.995-1.994,2.158l0.564,7.133"/><path fill="none" stroke="#18193f" stroke-linecap="round" stroke-linejoin="round" stroke-miterlimit="10" stroke-width="3" d="M9.759,22.415l1.2,15.159c0.062,0.784,0.578,1.46,1.319,1.725l11.047,3.959c0.436,0.156,0.913,0.156,1.349,0l11.047-3.959	c0.741-0.265,1.257-0.941,1.319-1.725l0.281-3.551"/><path fill="#18193f" d="M31.371,16H18.22l0.44,6h12.783c0.581,0,1.04,0.494,0.997,1.074l-0.731,9.874	c-0.03,0.406-0.304,0.754-0.692,0.878L24.3,35.981c-0.202,0.065-0.418,0.064-0.619-0.003l-6.527-2.158	c-0.384-0.127-0.653-0.472-0.683-0.875l-0.25-3.333C16.156,28.742,16.844,28,17.717,28h0c0.786,0,1.438,0.606,1.496,1.39l0.148,2	l4.65,1.53l4.81-1.54L29.29,25H16.808c-0.523,0-0.958-0.403-0.997-0.925l-0.75-10C15.017,13.495,15.476,13,16.058,13h15.313	c0.874,0,1.562,0.744,1.496,1.615v0C32.806,15.396,32.155,16,31.371,16z"/></svg>