<svg xmlns="http://www.w3.org/2000/svg"  viewBox="0 0 48 48" width="420px" height="420px"><path fill="#9fa8da" d="M38.094,41H12.906C11.301,41,10,39.699,10,38.094V12.906C10,11.301,11.301,10,12.906,10h25.188	C39.699,10,41,11.301,41,12.906v25.188C41,39.699,39.699,41,38.094,41z"/><path fill="none" stroke="#18193f" stroke-linecap="round" stroke-linejoin="round" stroke-miterlimit="10" stroke-width="3" d="M42.5,13.5v26c0,1.657-1.343,3-3,3h-26c-1.657,0-3-1.343-3-3v-2"/><path fill="none" stroke="#18193f" stroke-linecap="round" stroke-linejoin="round" stroke-miterlimit="10" stroke-width="3" d="M5.5,11.106V8.5c0-1.657,1.343-3,3-3h26c1.657,0,3,1.343,3,3v19.074"/><path fill="none" stroke="#18193f" stroke-linecap="round" stroke-linejoin="round" stroke-miterlimit="10" stroke-width="3" d="M37.5,32.936V34.5c0,1.657-1.343,3-3,3h-26c-1.657,0-3-1.343-3-3V16.213"/></svg>