<svg xmlns="http://www.w3.org/2000/svg" viewBox="0 0 48 48" width="420px" height="420px">
    <circle cx="28" cy="28" r="18" fill="#8ce7f2" />
    <path fill="none" stroke="#18193f" stroke-linecap="round" stroke-linejoin="round" stroke-miterlimit="10"
        stroke-width="3" d="M11.153,37.311C7.667,33.947,5.5,29.227,5.5,24C5.5,13.783,13.783,5.5,24,5.5" />
    <path fill="none" stroke="#18193f" stroke-linecap="round" stroke-linejoin="round" stroke-miterlimit="10"
        stroke-width="3"
        d="M34.176,8.548C39.191,11.857,42.5,17.542,42.5,24c0,10.217-8.283,18.5-18.5,18.5c-1.658,0-3.264-0.218-4.793-0.627" />
    <path fill="#18193f"
        d="M35.901,17.776c-0.158-0.164-0.402-0.211-0.61-0.115l-0.088,0.04	c-0.075,0.034-0.149,0.069-0.225,0.103c0.219-0.349,0.392-0.722,0.512-1.107c0.067-0.213-0.006-0.445-0.182-0.583	c-0.176-0.138-0.419-0.152-0.61-0.035c-0.78,0.474-1.522,0.777-2.315,0.958c-0.891-0.779-2.043-1.267-3.316-1.267	c-2.794,0-5.067,2.272-5.067,5.066v0.27c-5.697-0.523-7.297-4.318-7.364-4.484c-0.068-0.167-0.221-0.286-0.399-0.31	c-0.181-0.026-0.357,0.051-0.465,0.195c-0.037,0.049-0.906,1.228-0.906,2.986c0,1.393,0.515,2.396,1.07,3.071	c-0.552-0.135-0.88-0.293-0.885-0.296c-0.163-0.079-0.355-0.065-0.505,0.036c-0.149,0.103-0.231,0.277-0.215,0.457	c0.011,0.117,0.262,2.531,2.814,4.1l-0.825,0.206c-0.152,0.038-0.277,0.146-0.339,0.289c-0.062,0.145-0.052,0.309,0.026,0.444	c0.042,0.074,0.958,1.631,3.5,2.58c-0.935,0.431-2.625,0.97-5.215,0.97c-0.196,0-0.374,0.114-0.455,0.293	c-0.082,0.179-0.05,0.389,0.079,0.536c0.083,0.095,2.09,2.32,7.361,2.32c8.771,0,12.857-8.153,12.857-13.664	c0-0.072-0.018-0.139-0.021-0.211c1.362-1.231,1.86-2.191,1.882-2.235C36.097,18.186,36.059,17.94,35.901,17.776z" />
</svg>