<svg xmlns="http://www.w3.org/2000/svg" viewBox="0 0 48 48" width="420px" height="420px">
    <path fill="#18193f"
        d="M39,44H17c-2.761,0-5-2.239-5-5V17c0-2.761,2.239-5,5-5h22c2.761,0,5,2.239,5,5v22	C44,41.761,41.761,44,39,44z" />
    <path fill="none" stroke="#f48fb1" stroke-linecap="round" stroke-miterlimit="10" stroke-width="3"
        d="M40.5,27.5v8	c0,2.761-2.239,5-5,5h-23c-2.761,0-5-2.239-5-5v-23c0-2.761,2.239-5,5-5h8" />
    <path fill="none" stroke="#f48fb1" stroke-linecap="round" stroke-linejoin="round" stroke-miterlimit="10"
        stroke-width="3" d="M17.309,24.177C20.466,17.286,27.424,12.5,35.5,12.5h5" />
    <path fill="none" stroke="#f48fb1" stroke-linecap="round" stroke-linejoin="round" stroke-miterlimit="10"
        stroke-width="3" d="M15.5,32.5c0-1.033,0.078-2.047,0.229-3.038" />
    <path fill="none" stroke="#f48fb1" stroke-linecap="round" stroke-linejoin="round" stroke-miterlimit="10"
        stroke-width="3" d="M35.5,17.5l5-5l-5-5" />
</svg>