<svg xmlns="http://www.w3.org/2000/svg" viewBox="0 0 48 48" width="420px" height="420px" baseProfile="basic">
    <path fill="#ffe082"
        d="M43.5,24.6v20.9h-9V37c0-3.59-2.91-6.5-6.5-6.5s-6.5,2.91-6.5,6.5v8.5h-9V24.6L28,9.5L43.5,24.6z" />
    <path fill="#18193f"
        d="M8.5,43C7.672,43,7,42.329,7,41.5v-14C7,26.671,7.672,26,8.5,26s1.5,0.671,1.5,1.5v14	C10,42.329,9.328,43,8.5,43z" />
    <path fill="#18193f"
        d="M39.5,43c-0.828,0-1.5-0.671-1.5-1.5v-14c0-0.829,0.672-1.5,1.5-1.5s1.5,0.671,1.5,1.5v14	C41,42.329,40.328,43,39.5,43z" />
    <path fill="#18193f"
        d="M30.5,43c-0.828,0-1.5-0.671-1.5-1.5V33c0-2.757-2.243-5-5-5s-5,2.243-5,5v8.5	c0,0.829-0.672,1.5-1.5,1.5S16,42.329,16,41.5V33c0-4.411,3.589-8,8-8s8,3.589,8,8v8.5C32,42.329,31.328,43,30.5,43z" />
    <path fill="#18193f"
        d="M43.5,26c-0.378,0-0.755-0.142-1.047-0.426L24,7.594L5.547,25.574	c-0.595,0.577-1.543,0.566-2.121-0.027s-0.566-1.543,0.027-2.121l19.5-19c0.582-0.567,1.512-0.567,2.094,0l19.5,19	c0.594,0.578,0.605,1.528,0.027,2.121C44.28,25.849,43.891,26,43.5,26z" />
</svg>