<svg xmlns="http://www.w3.org/2000/svg" id="flag-icons-ir" viewBox="0 0 512 512">
  <defs>
    <clipPath id="ir-a">
      <path fill-opacity=".7" d="M186 0h496v496H186z"/>
    </clipPath>
  </defs>
  <g fill-rule="evenodd" clip-path="url(#ir-a)" transform="translate(-192) scale(1.0321)">
    <path fill="#fff" d="M0 0h868.1v496H0z"/>
    <path fill="#da0000" d="M0 333.1h868.1v163H0z"/>
    <path fill="#239f40" d="M0 0h868.1v163H0z"/>
    <path fill="#d90000" stroke-width="1pt" d="M119.3 329h5.9v10h-5.9zm155.5 0h5.9v10h-5.9zM0 329h5.8v10H0zm78.9 0h5.9v10h-5.9zm78.4 0h5.8v10h-5.8zm38.8 0h5.8v10h-5.8zm39.5 0h6v10h-6zm78 0h5.9v10h-5.9zm196.8 0h5.8v10h-5.8zm-157.2 0h5.9v10h-5.9zm38.8 0h5.9v10H392zm39.2 0h5.8v10h-5.8zm39.2 0h5.8v10h-5.8zm313 0h6v10h-6zm-235 0h5.8v10h-5.9zm39.5 0h5.9v10h-5.9zm40 0h5.9v10h-5.9zm37.6 0h5.9v10h-5.9zm40 0h5.9v10h-6zm39.2 0h5.8v10h-5.8zm116 0h5.8v10h-5.9zm-37.6 0h5.8v10h-5.8zm-783.8 0h5.9v10h-5.9z"/>
    <path fill="#239e3f" stroke-width="1pt" d="M119.3 157.6h5.9v10.1h-5.9zm155.5 0h5.9v10.1h-5.9zM0 157.6h5.8v10.1H0zm78.9 0h5.9v10.1h-5.9zm78.4 0h5.8v10.1h-5.8zm38.8 0h5.8v10.1h-5.8zm39.5 0h6v10.1h-6zm78 0h5.9v10.1h-5.9zm196.8 0h5.8v10.1h-5.8zm-157.2 0h5.9v10.1h-5.9zm38.8 0h5.9v10.1H392zm39.2 0h5.8v10.1h-5.8zm39.2 0h5.8v10.1h-5.8zm313 0h6v10.1h-6zm-235 0h5.8v10.1h-5.9zm39.5 0h5.9v10.1h-5.9zm40 0h5.9v10.1h-5.9zm37.6 0h5.9v10.1h-5.9zm40 0h5.9v10.1h-6zm39.2 0h5.8v10.1h-5.8zm116 0h5.8v10.1h-5.9zm-37.6 0h5.8v10.1h-5.8zm-783.8 0h5.9v10.1h-5.9z"/>
  </g>
</svg>
